<?xml version="1.0" encoding="UTF-8" standalone="no"?>
<!-- Created with Inkscape (http://www.inkscape.org/) -->

<svg
   xmlns:dc="http://purl.org/dc/elements/1.1/"
   xmlns:cc="http://creativecommons.org/ns#"
   xmlns:rdf="http://www.w3.org/1999/02/22-rdf-syntax-ns#"
   xmlns:svg="http://www.w3.org/2000/svg"
   xmlns="http://www.w3.org/2000/svg"
   xmlns:sodipodi="http://sodipodi.sourceforge.net/DTD/sodipodi-0.dtd"
   xmlns:inkscape="http://www.inkscape.org/namespaces/inkscape"
   width="500.00031"
   height="499.99905"
   id="svg5308"
   version="1.1"
   inkscape:version="0.91 r13725"
   viewBox="0 0 500.0003 499.99905"
   sodipodi:docname="speed.svg">
  <defs
     id="defs5310" />
  <sodipodi:namedview
     id="base"
     pagecolor="#ffffff"
     bordercolor="#666666"
     borderopacity="1.0"
     inkscape:pageopacity="0.0"
     inkscape:pageshadow="2"
     inkscape:zoom="1.9445436"
     inkscape:cx="227.26672"
     inkscape:cy="397.57728"
     inkscape:current-layer="layer1"
     showgrid="true"
     inkscape:document-units="px"
     inkscape:grid-bbox="true"
     showborder="false"
     fit-margin-top="0"
     fit-margin-left="0"
     fit-margin-right="0"
     fit-margin-bottom="0"
     inkscape:window-width="1354"
     inkscape:window-height="712"
     inkscape:window-x="0"
     inkscape:window-y="0"
     inkscape:window-maximized="1" />
  <metadata
     id="metadata5313">
    <rdf:RDF>
      <cc:Work
         rdf:about="">
        <dc:format>image/svg+xml</dc:format>
        <dc:type
           rdf:resource="http://purl.org/dc/dcmitype/StillImage" />
        <dc:title></dc:title>
      </cc:Work>
    </rdf:RDF>
  </metadata>
  <g
     id="layer1"
     inkscape:label="Layer 1"
     inkscape:groupmode="layer"
     transform="translate(247.69176,203.75401)">
    <ellipse
       style="opacity:1;fill:#ffffff;fill-opacity:1;stroke:#014d80;stroke-width:14.84708118;stroke-miterlimit:4;stroke-dasharray:none;stroke-opacity:1"
       id="path4204"
       cx="7.3553357"
       cy="45.658909"
       rx="242.77844"
       ry="242.33414"
       transform="matrix(0.99312832,0.11703053,-0.10942893,0.99399462,0,0)" />
    <a
       id="a5489"
       style="fill:#014d80;fill-opacity:1"
       transform="translate(-4,-4)">
      <path
         id="path5448"
         d="m -6.2329688,-105.59073 c -54.9828022,4.567 -103.2748012,37.44298 -127.6651212,86.875133 -29.12341,58.978135 -18.19134,130.111507 27.08261,176.934407 l 7.096417,7.42217 11.503716,-11.50054 c 6.282023,-6.28202 11.42069,-11.82948 11.42069,-12.31813 0,-0.48861 -2.04078,-2.60923 -4.567,-4.72985 l -4.56699,-3.91549 -7.096411,7.09641 -7.179462,7.17945 -3.18092,-3.66957 c -19.08878,-21.69802 -31.64961,-52.533243 -34.01616,-83.614366 l -0.32575,-4.241245 10.03462,0 10.10807,0 0,-6.527932 0,-6.524733 -9.7887,0 -9.78871,0 0,-3.589729 c 0,-5.221703 2.85518,-20.883626 5.30156,-29.4491376 5.54746,-19.0887784 15.90784,-37.9316254 29.69187,-54.2482624 l 2.446379,-2.855166 6.770652,6.770653 6.85369,6.690815 4.650037,-4.729884 4.650026,-4.729874 -6.524734,-6.444897 c -3.589728,-3.589728 -6.524743,-6.690804 -6.524743,-6.933525 0,-0.651526 8.891281,-7.585052 16.070728,-12.560847 18.108297,-12.480988 44.865151,-22.023771 66.9719697,-23.81864 l 6.68761704,-0.571679 0,9.542795 0,9.462947 6.52473386,0 6.5279304,0 0,-9.462947 0,-9.542795 6.770654,0.571679 c 15.336165,1.306227 35.568289,6.933525 50.249739,14.112983 8.482477,4.161385 19.903167,11.500516 27.734125,17.865575 l 4.975796,3.995323 -6.524746,6.524733 c -3.589713,3.589729 -6.52473,6.933537 -6.52473,7.425368 0,0.488641 2.03758,2.609258 4.56699,4.729873 l 4.567,3.995323 6.690816,-6.687617 6.68761,-6.690805 4.97579,5.956254 c 18.35421,22.269703 30.58929,51.3930844 32.63006,78.229788 l 0.48865,6.444885 -9.94839,0 -9.87175,0 0,6.521544 0,6.524745 10.03464,0 10.03461,0 -0.65473,7.751112 c -2.12059,26.431095 -12.80673,53.430686 -29.77488,75.211746 -2.85517,3.66956 -5.54747,6.93352 -6.03611,7.25927 -0.48864,0.32576 -4.07835,-2.69226 -8.15671,-6.68761 l -7.259296,-7.25928 -4.650031,4.65004 -4.56699,4.65002 11.257797,11.66342 c 6.19899,6.44489 11.50053,11.74643 11.82947,11.90932 0.32577,0.083 3.66957,-3.10109 7.50522,-7.09643 C 159.76938,116.20882 173.151,56.007498 154.87663,1.2706048 132.11509,-67.250316 65.306002,-111.54699 -6.2329688,-105.59073 Z"
         inkscape:connector-curvature="0"
         style="fill:#014d80;fill-opacity:1" />
    </a>
    <path
       inkscape:connector-curvature="0"
       d="M 54.328731,10.240234 9.054785,32.104331 6.608401,30.63523 c -11.9093098,-7.096411 -26.839881,-0.162884 -28.634752,13.378422 -0.734551,5.138668 0.897436,10.360382 4.404129,14.521778 3.752602,4.324279 8.2397545,6.444885 14.0299376,6.444885 5.7103444,0 10.2773344,-2.120606 13.9500994,-6.444885 3.101087,-3.592918 4.816109,-7.913999 4.816109,-12.401162 l 0,-2.775329 L 60.284996,21.74076 C 85.001073,9.834628 105.96452,-0.5257406 106.69909,-1.3433286 c 3.42685,-3.3438091 0.16287,-10.4402194 -4.81293,-10.2773354 -1.22318,0 -22.67847,9.8717297 -47.557429,21.860898 z M 1.549582,43.116217 c 4.158208,5.547472 -3.7526034,12.643882 -9.1371906,8.15673 -2.6092584,-2.120627 -3.0180404,-5.87323 -0.8974351,-8.565512 1.5489496,-1.957744 2.3665478,-2.283501 5.1386793,-2.040791 2.449561,0.166084 3.6727544,0.817598 4.8959464,2.449573 z"
       id="path5450"
       style="fill:#014d80;fill-opacity:1" />
  </g>
</svg>
