<?xml version="1.0" encoding="UTF-8" standalone="no"?>
<!-- Created with Inkscape (http://www.inkscape.org/) -->

<svg
   xmlns:dc="http://purl.org/dc/elements/1.1/"
   xmlns:cc="http://creativecommons.org/ns#"
   xmlns:rdf="http://www.w3.org/1999/02/22-rdf-syntax-ns#"
   xmlns:svg="http://www.w3.org/2000/svg"
   xmlns="http://www.w3.org/2000/svg"
   xmlns:sodipodi="http://sodipodi.sourceforge.net/DTD/sodipodi-0.dtd"
   xmlns:inkscape="http://www.inkscape.org/namespaces/inkscape"
   width="499.99997"
   height="500.00003"
   id="svg6135"
   version="1.1"
   inkscape:version="0.91 r13725"
   viewBox="0 0 499.99997 500.00003"
   sodipodi:docname="full-stack.svg">
  <defs
     id="defs6137" />
  <sodipodi:namedview
     id="base"
     pagecolor="#ffffff"
     bordercolor="#666666"
     borderopacity="1.0"
     inkscape:pageopacity="0.0"
     inkscape:pageshadow="2"
     inkscape:zoom="0.97227183"
     inkscape:cx="267.02681"
     inkscape:cy="115.36923"
     inkscape:current-layer="layer1"
     showgrid="true"
     inkscape:document-units="px"
     inkscape:grid-bbox="true"
     showborder="false"
     fit-margin-top="0"
     fit-margin-left="0"
     fit-margin-right="0"
     fit-margin-bottom="0"
     inkscape:window-width="1354"
     inkscape:window-height="712"
     inkscape:window-x="0"
     inkscape:window-y="0"
     inkscape:window-maximized="1" />
  <metadata
     id="metadata6140">
    <rdf:RDF>
      <cc:Work
         rdf:about="">
        <dc:format>image/svg+xml</dc:format>
        <dc:type
           rdf:resource="http://purl.org/dc/dcmitype/StillImage" />
        <dc:title></dc:title>
      </cc:Work>
    </rdf:RDF>
  </metadata>
  <g
     id="layer1"
     inkscape:label="Layer 1"
     inkscape:groupmode="layer"
     transform="translate(236.05533,246.46368)">
    <ellipse
       style="opacity:1;fill:#ffffff;fill-opacity:1;stroke:#014d80;stroke-width:14.84713268;stroke-miterlimit:4;stroke-dasharray:none;stroke-opacity:1"
       id="path4204"
       cx="14.248301"
       cy="1.8801378"
       rx="242.77826"
       ry="242.33459"
       transform="matrix(0.99312828,0.11703085,-0.10942857,0.99399466,0,0)" />
    <path
       inkscape:connector-curvature="0"
       d="M 198.51228,-66.08793 12.905497,-158.89132 -172.70129,-66.08793 12.905497,26.71546 198.51228,-66.08793 l 0,0 z M 12.905497,-140.93671 162.60305,-66.08793 12.905497,8.79873 -136.79206,-66.08793 l 149.697557,-74.84878 0,0 z M 153.5121,-1.39071 162.64092,3.15477 12.905497,78.04142 -136.79206,3.15477 l 9.12883,-4.54548 -17.95462,-8.9773 L -172.70129,3.15477 12.905497,95.95816 198.51228,3.15477 171.46672,-10.36801 153.5121,-1.39071 Z m 0,69.28057 9.12882,4.54548 -149.735423,74.88665 -149.697557,-74.84877 9.12883,-4.54547 -17.95462,-8.97731 -27.08344,13.52278 L 12.905497,165.27661 198.51228,72.47322 171.46672,58.95044 153.5121,67.88986 Z"
       id="path4995"
       style="fill:#014d80;fill-opacity:1" />
  </g>
</svg>
