<?xml version="1.0" encoding="UTF-8" standalone="no"?>
<!-- Created with Inkscape (http://www.inkscape.org/) -->

<svg
   xmlns:osb="http://www.openswatchbook.org/uri/2009/osb"
   xmlns:dc="http://purl.org/dc/elements/1.1/"
   xmlns:cc="http://creativecommons.org/ns#"
   xmlns:rdf="http://www.w3.org/1999/02/22-rdf-syntax-ns#"
   xmlns:svg="http://www.w3.org/2000/svg"
   xmlns="http://www.w3.org/2000/svg"
   xmlns:sodipodi="http://sodipodi.sourceforge.net/DTD/sodipodi-0.dtd"
   xmlns:inkscape="http://www.inkscape.org/namespaces/inkscape"
   width="499.99997"
   height="500.00003"
   id="svg5314"
   version="1.1"
   inkscape:version="0.91 r13725"
   viewBox="0 0 499.99997 500.00003"
   sodipodi:docname="hand-with-cog.svg">
  <defs
     id="defs5316">
    <linearGradient
       inkscape:collect="always"
       id="linearGradient6017"
       osb:paint="gradient">
      <stop
         style="stop-color:#014d80;stop-opacity:1;"
         offset="0"
         id="stop6019" />
      <stop
         style="stop-color:#014d80;stop-opacity:0;"
         offset="1"
         id="stop6021" />
    </linearGradient>
  </defs>
  <sodipodi:namedview
     id="base"
     pagecolor="#ffffff"
     bordercolor="#666666"
     borderopacity="1.0"
     inkscape:pageopacity="0.0"
     inkscape:pageshadow="2"
     inkscape:zoom="1.0279999"
     inkscape:cx="249.99998"
     inkscape:cy="250.00002"
     inkscape:current-layer="layer1"
     showgrid="true"
     inkscape:document-units="px"
     inkscape:grid-bbox="true"
     inkscape:window-width="1354"
     inkscape:window-height="712"
     inkscape:window-x="0"
     inkscape:window-y="0"
     inkscape:window-maximized="1"
     showborder="false"
     fit-margin-top="0"
     fit-margin-left="0"
     fit-margin-right="0"
     fit-margin-bottom="0" />
  <metadata
     id="metadata5319">
    <rdf:RDF>
      <cc:Work
         rdf:about="">
        <dc:format>image/svg+xml</dc:format>
        <dc:type
           rdf:resource="http://purl.org/dc/dcmitype/StillImage" />
        <dc:title></dc:title>
      </cc:Work>
    </rdf:RDF>
  </metadata>
  <g
     id="layer1"
     inkscape:label="Layer 1"
     inkscape:groupmode="layer"
     transform="translate(218.36362,217.8182)">
    <ellipse
       style="opacity:1;fill:#ffffff;fill-opacity:1;stroke:#014d80;stroke-width:14.84721731;stroke-miterlimit:4;stroke-dasharray:none;stroke-opacity:1"
       id="path4204"
       cx="34.969009"
       cy="28.259071"
       rx="242.77826"
       ry="242.33459"
       transform="matrix(0.99312828,0.11703085,-0.10942857,0.99399466,0,0)" />
    <path
       inkscape:connector-curvature="0"
       d="m 170.64277,111.34734 c -5.81521,-5.27962 -14.79764,-4.93422 -20.92438,0 l -45.27558,36.46392 c -5.5556,4.49015 -12.46116,6.90792 -19.626335,6.90792 l -57.996346,0 c -4.309487,0 -7.840151,-3.55265 -7.840151,-7.89477 0,-4.34211 3.530664,-7.89476 7.840151,-7.89476 l 38.370008,0 c 7.840155,0 15.05725,-5.3783 16.303363,-13.12503 1.609572,-9.86845 -5.970973,-18.454 -15.472615,-18.454 l -78.453431,0 c -13.23999,0 -26.064607,4.58883 -36.293148,12.97701 l -22.793547,18.60202 -27.20688,0 c -4.309499,0 -7.840159,3.55265 -7.840159,7.89476 l 0,47.36855 c 0,4.34212 3.53066,7.89476 7.840159,7.89476 l 174.923625,0 c 7.113247,0 14.018816,-2.41777 19.626336,-6.90791 l 74.14394,-59.70412 c 7.47671,-5.9704 8.04785,-17.41781 0.67499,-24.12835 z"
       id="path7590"
       sodipodi:nodetypes="cscssssscssccsssssccc"
       style="fill:#000000;fill-opacity:0;stroke:#014d80;stroke-width:11.94930649;stroke-miterlimit:4;stroke-dasharray:none;stroke-opacity:1" />
    <g
       transform="matrix(0.19703049,0,0,0.19703049,-57.239671,-169.07087)"
       id="g7664" />
    <g
       transform="matrix(0.19529737,0,0,0.19529737,-64.549397,-122.63117)"
       id="g7913"
       style="fill:none;stroke:#014d80;stroke-width:65.02710724;stroke-miterlimit:4;stroke-dasharray:none;stroke-opacity:1">
      <path
         inkscape:connector-curvature="0"
         d="m 499.9,322.9 c -97.8,0 -177.1,79.3 -177.1,177.2 0,97.8 79.3,177.2 177.1,177.2 97.8,0 176.6,-79.5 176.6,-177.2 0,-97.9 -78.8,-177.2 -176.6,-177.2 l 0,0 z m 355.1,278.9 -31.9,76.9 64.5,126.6 -79,79 -129.5,-61.2 -76.9,31.6 -39,119.5 -5,15.9 -111.6,0 L 398.3,855.2 321.4,823.5 194.6,887.7 115.7,808.8 176.8,679.2 145.1,602.4 10,558.2 l 0,-111.6 135,-48.4 31.7,-76.8 -56.8,-112.1 -7.5,-14.7 78.8,-78.8 129.7,61.2 76.8,-31.7 39,-119.4 5,-15.8 111.6,0 48.3,135 76.7,31.7 126.9,-64.3 78.9,78.8 -61.1,129.5 31.6,76.9 135.3,44 0,111.5 -134.9,48.6 0,0 z"
         id="path7915"
         style="fill:none;stroke:#014d80;stroke-width:65.02710724;stroke-miterlimit:4;stroke-dasharray:none;stroke-opacity:1" />
    </g>
  </g>
</svg>
