<?xml version="1.0" encoding="UTF-8" standalone="no"?>
<svg
   xmlns:dc="http://purl.org/dc/elements/1.1/"
   xmlns:cc="http://creativecommons.org/ns#"
   xmlns:rdf="http://www.w3.org/1999/02/22-rdf-syntax-ns#"
   xmlns:svg="http://www.w3.org/2000/svg"
   xmlns="http://www.w3.org/2000/svg"
   xmlns:xlink="http://www.w3.org/1999/xlink"
   xmlns:sodipodi="http://sodipodi.sourceforge.net/DTD/sodipodi-0.dtd"
   xmlns:inkscape="http://www.inkscape.org/namespaces/inkscape"
   version="1.1"
   x="0px"
   y="0px"
   viewBox="0 0 1000 1000"
   enable-background="new 0 0 1000 1000"
   xml:space="preserve"
   id="svg8"
   sodipodi:docname="jump-forward-icon.svg"
   inkscape:version="0.92.3 (2405546, 2018-03-11)"><sodipodi:namedview
   pagecolor="#ffffff"
   bordercolor="#666666"
   borderopacity="1"
   objecttolerance="10"
   gridtolerance="10"
   guidetolerance="10"
   inkscape:pageopacity="0"
   inkscape:pageshadow="2"
   inkscape:window-width="1918"
   inkscape:window-height="996"
   id="namedview10"
   showgrid="false"
   inkscape:zoom="0.6675088"
   inkscape:cx="400.33683"
   inkscape:cy="466.87647"
   inkscape:window-x="0"
   inkscape:window-y="27"
   inkscape:window-maximized="0"
   inkscape:current-layer="g4535" /><defs
   id="defs12"><clipPath
     id="clipPath4539"
     clipPathUnits="userSpaceOnUse"><use
       height="100%"
       width="100%"
       id="use4541"
       xlink:href="#g4535"
       y="0"
       x="0" /></clipPath></defs>
<metadata
   id="metadata2"> Svg Vector Icons : http://www.onlinewebfonts.com/icon <rdf:RDF><cc:Work
     rdf:about=""><dc:format>image/svg+xml</dc:format><dc:type
       rdf:resource="http://purl.org/dc/dcmitype/StillImage" /><dc:title /></cc:Work></rdf:RDF></metadata>
<g
   id="g6"><g
     id="g4535"
     style="stroke-width:0.1;stroke-miterlimit:4;stroke-dasharray:none"><path
       inkscape:connector-curvature="0"
       id="path4-36"
       d="m 358.1847,446.60979 c -5.75,4.08333 -11.5,8.16667 -17.25,12.25 -5.75,4.08333 -11.5,8.16667 -17.25,12.25 -5.75,4.08333 -11.5,8.16667 -17.25,12.25 -18.53927,14.52102 -17.25,11.90606 -17.25,-11.15 -2.49724,-21.51206 1.4108,-24.41308 17.825,-36.2 l 17.825,-12.8 17.825,-12.8 c 32.62741,-22.96823 61.98017,-9.00521 62.325,11.88296 v 24.68295 24.68303 24.68304 24.6835 24.6835 24.68313 24.68313 24.68369 24.68369 24.68369 c 0.36344,25.75207 1.52785,24.68369 -22.25,24.68369 -26.28511,-0.33209 -22.26431,-1.53823 -22.48,-24.71963 l -0.22999,-24.71962 -0.23001,-24.72009 -0.23,-24.72009 -0.22999,-24.71972 -0.23,-24.71972 -0.23,-24.72028 -0.23,-24.72028 -0.23001,-24.72029 -0.23,-24.72028 v 0 m 142.5,530.09998 c -8.37659,0 -16.70115,-0.2344 -24.96747,-0.6969 -8.35763,-0.4676 -16.65572,-1.1685 -24.88781,-2.0961 -8.3129,-0.9367 -16.5585,-2.1046 -24.73017,-3.4972 -8.24179,-1.4045 -16.40838,-3.0375 -24.49296,-4.8921 -8.14382,-1.8683 -16.20442,-3.9615 -24.17485,-6.2726 -8.02117,-2.3259 -15.95102,-4.8725 -23.78245,-7.6328 -7.87261,-2.7748 -15.64577,-5.7655 -23.31226,-8.9649 -7.70026,-3.2135 -15.29291,-6.6376 -22.77065,-10.2649 -7.50395,-3.6401 -14.89218,-7.4848 -22.15733,-11.5268 -7.28558,-4.0534 -14.44737,-8.3052 -21.47794,-12.748 -7.04565,-4.4523 -13.95951,-9.0964 -20.73411,-13.9248 -6.78535,-4.836 -13.43098,-9.857 -19.92938,-15.0553 -6.5049,-5.2036 -12.86226,-10.5848 -19.06454,-16.1363 -6.20531,-5.5541 -12.25539,-11.2786 -18.14269,-17.1659 -5.88742,-5.8874 -11.61205,-11.9376 -17.16632,-18.143 -5.55156,-6.2024 -10.93294,-12.5599 -16.13658,-19.065 -5.19834,-6.4984 -10.2193,-13.144 -15.05537,-19.9293 -4.8284,-6.7746 -9.47249,-13.6885 -13.92479,-20.7341 -4.44281,-7.0307 -8.69464,-14.1925 -12.74805,-21.4781 -4.04205,-7.2652 -7.88679,-14.6535 -11.526859,-22.1575 -3.62728,-7.4777 -7.05131,-15.0703 -10.26479,-22.7704 -3.19939,-7.66643 -6.19007,-15.43949 -8.96484,-23.31201 -2.7603,-7.83145 -5.30693,-15.76132 -7.6328,-23.78252 -2.31116,-7.97045 -4.40434,-16.03107 -6.2726,-24.17491 -1.85466,-8.08461 -3.48766,-16.25123 -4.89218,-24.49306 -1.39256,-8.1717 -2.56052,-16.41733 -3.49724,-24.73025 -0.92761,-8.23208 -1.62845,-16.53016 -2.09607,-24.88779 -0.46252,-8.2663 -0.6969,-16.59086 -0.6969,-24.96744 0,-8.37589 0.23434,-16.69965 0.69678,-24.96506 0.46755,-8.35672 1.16828,-16.65379 2.09574,-24.88478 0.93662,-8.31231 2.10447,-16.55722 3.49692,-24.72811 1.4044,-8.24102 3.03727,-16.40673 4.89181,-24.49035 1.86821,-8.14325 3.96137,-16.2032 6.27252,-24.17288 2.32586,-8.02043 4.87249,-15.94945 7.63281,-23.77997 2.77487,-7.87183 5.76568,-15.64411 8.96522,-23.30966 3.21364,-7.6993 6.63785,-15.29093 10.26534,-22.76758 3.640299,-7.50308 7.485319,-14.89037 11.527659,-22.1545 4.05372,-7.28455 8.30588,-14.44526 12.74904,-21.47469 4.45277,-7.04462 9.09737,-13.9574 13.92631,-20.73084 4.83661,-6.78421 9.85815,-13.42864 15.05709,-19.92578 5.204,-6.50348 10.58576,-12.85939 16.13772,-19.06018 5.55466,-6.20381 11.2797,-12.25237 17.16754,-18.13811 5.88767,-5.88557 11.93813,-11.60834 18.14384,-17.16075 6.20267,-5.5497 12.56044,-10.92922 19.06575,-16.13101 6.49885,-5.19663 13.14494,-10.21588 19.93076,-15.05025 6.77506,-4.82671 13.68941,-9.46911 20.73554,-13.91974 7.03062,-4.44083 14.19245,-8.69072 21.47805,-12.74224 7.26518,-4.04017 14.65344,-7.88309 22.1574,-11.52138 7.47749,-3.62546 15.06988,-7.04773 22.76985,-10.25954 7.66621,-3.19772 15.43906,-6.18681 23.31136,-8.96008 7.8311,-2.75875 15.7606,-5.30394 23.78142,-7.62847 7.97006,-2.30982 16.03029,-4.401783 24.17372,-6.268923 8.08393,-1.8535 16.24986,-3.48545 24.49097,-4.88906 8.171,-1.39167 16.41591,-2.55886 24.7281,-3.49496 8.23135,-0.927 16.52869,-1.62737 24.88556,-2.09469 8.26556,-0.46221 16.58936,-0.69643 24.96518,-0.69643 -0.35788,-9.33259 -0.36166,-17.57087 0.0141,-24.7552 0.53403,-10.21118 1.83472,-18.29321 3.97498,-24.36191 3.54678,-10.05688 9.39923,-14.58472 17.88925,-14.11061 6.19044,0.3457 13.78313,3.35068 22.90674,8.81063 6.08071,3.63895 12.84145,8.36839 20.3203,14.12782 l 16.27619,12.20258 16.27619,12.20258 16.27704,12.20321 16.27705,12.20322 c 8.40106,5.19031 15.0818,9.908113 20.1519,14.325623 8.51184,7.41625 12.48415,13.98612 12.43591,20.52447 -0.0493,6.67749 -4.29204,13.32211 -12.17548,20.80182 -5.00701,4.75059 -11.48264,9.83804 -19.28524,15.48475 l -16.41736,12.31763 -16.41736,12.31763 -16.41711,12.31744 -16.41712,12.31744 c -7.43362,6.36108 -14.06531,11.40831 -19.97511,15.23726 -9.39404,6.08639 -16.96403,9.09453 -23.03136,9.40829 -8.85054,0.45768 -14.50362,-4.8179 -17.95687,-14.63518 -2.25493,-6.4106 -3.57186,-14.75776 -4.22854,-24.70972 -0.4956,-7.5102 -0.61516,-15.93431 -0.4781,-25.12976 -7.82496,0 -15.59317,0.25566 -23.29671,0.75903 -7.80196,0.5098 -15.53757,1.27369 -23.19859,2.28341 -7.7449,1.02078 -15.41355,2.29281 -22.99745,3.80756 -7.65458,1.52887 -15.22281,3.30501 -22.69593,5.31966 -7.53096,2.03024 -14.96533,4.30269 -22.29414,6.80839 -7.37548,2.52165 -14.64405,5.27953 -21.79657,8.26449 -7.18927,3.00029 -14.26129,6.23001 -21.20678,9.67987 -6.97267,3.46335 -13.81783,7.14858 -20.52607,11.04627 -6.72852,3.90948 -13.31931,8.03272 -19.76286,12.36025 -6.45773,4.33704 -12.76759,8.87926 -18.92004,13.61712 -6.16067,4.7442 -12.16351,9.68456 -17.99894,14.8115 -5.8397,5.13069 -11.51174,10.44825 -17.00653,15.94306 -5.4949,5.49492 -10.81253,11.16711 -15.94329,17.00695 -5.127,5.83557 -10.06742,11.83856 -14.81166,17.99939 -4.73786,6.15255 -9.28009,12.46251 -13.61712,18.92035 -4.32752,6.44366 -8.45075,13.03455 -12.36022,19.76318 -3.89756,6.70814 -7.58266,13.55319 -11.0459,20.52576 -3.44973,6.94539 -6.67934,14.0173 -9.67953,21.20645 -2.98482,7.15231 -5.74257,14.42066 -8.26411,21.79591 -2.50559,7.32859 -4.77794,14.76273 -6.8081,22.29346 -2.0146,7.473 -3.7907,15.04112 -5.31954,22.69558 -1.51472,7.58378 -2.78672,15.25232 -3.80748,22.9971 -1.00972,7.66101 -1.77361,15.39661 -2.28341,23.19857 -0.50337,7.70353 -0.75903,15.47174 -0.75903,23.29669 0,7.82496 0.25566,15.59317 0.75903,23.29671 0.5098,7.80196 1.27369,15.53757 2.28341,23.19859 1.02078,7.7449 2.29281,15.41355 3.80756,22.99745 1.52887,7.65458 3.30501,15.22281 5.31966,22.69593 2.03024,7.53096 4.30269,14.96533 6.80839,22.29414 2.52165,7.37548 5.27953,14.64405 8.26449,21.79657 3.00029,7.18927 6.23001,14.26129 9.67987,21.20678 3.46335,6.97267 7.14858,13.81781 11.04627,20.52611 3.90948,6.7285 8.03272,13.3193 12.36025,19.7628 4.33704,6.4577 8.87926,12.7676 13.61712,18.9201 4.7442,6.1606 9.68456,12.1635 14.8115,17.9989 5.13069,5.8397 10.44825,11.5117 15.94306,17.0065 5.49492,5.4949 11.16711,10.8126 17.00695,15.9433 5.83557,5.127 11.83856,10.0674 17.99939,14.8117 6.15255,4.7378 12.46251,9.2801 18.92035,13.6171 6.44366,4.3275 13.03455,8.4507 19.76318,12.3602 6.70814,3.8976 13.55319,7.5827 20.52576,11.0459 6.94539,3.4497 14.0173,6.6794 21.20645,9.6795 7.15231,2.9849 14.42066,5.7426 21.79591,8.2642 7.32859,2.5055 14.76273,4.7779 22.29346,6.8081 7.473,2.0146 15.04112,3.7907 22.69558,5.3195 7.58378,1.5147 15.25232,2.7867 22.9971,3.8075 7.66101,1.0097 15.39661,1.7736 23.19857,2.2834 7.70353,0.5034 15.47174,0.759 23.29669,0.759 7.82496,0 15.59317,-0.2556 23.29671,-0.759 7.80196,-0.5098 15.53757,-1.2737 23.19859,-2.2834 7.7449,-1.0208 15.41355,-2.2928 22.99745,-3.8076 7.65458,-1.5289 15.22281,-3.305 22.69593,-5.3196 7.53096,-2.0303 14.96533,-4.3027 22.29414,-6.8084 7.37548,-2.5217 14.64405,-5.2796 21.79657,-8.2645 7.18927,-3.0003 14.26129,-6.23 21.20678,-9.6799 6.97267,-3.4633 13.81783,-7.1486 20.52607,-11.0463 6.72852,-3.9094 13.31931,-8.0327 19.76286,-12.3602 6.45773,-4.3371 12.76759,-8.8793 18.92004,-13.6171 6.16067,-4.7442 12.16351,-9.6846 17.99894,-14.8115 5.8397,-5.1307 11.51174,-10.4483 17.00653,-15.9431 5.4949,-5.4949 10.81253,-11.1671 15.94329,-17.0069 5.127,-5.8356 10.06742,-11.8386 14.81166,-17.9994 4.73786,-6.1526 9.28009,-12.4625 13.61712,-18.9204 4.32752,-6.4436 8.45075,-13.0345 12.36022,-19.7632 3.89756,-6.7081 7.58266,-13.55315 11.0459,-20.52572 3.44973,-6.94539 6.67934,-14.0173 9.67953,-21.20645 2.98482,-7.15231 5.74257,-14.42066 8.26411,-21.79591 2.50559,-7.32859 4.77794,-14.76273 6.8081,-22.29346 2.0146,-7.473 3.7907,-15.04112 5.31954,-22.69558 1.51472,-7.58378 2.78672,-15.25232 3.80748,-22.9971 0.57156,-12.11761 0.90402,-21.07922 1.97588,-27.70623 1.88645,-11.66345 6.06323,-16.09534 17.86482,-17.77364 6.57576,-0.93514 15.51874,-1.01539 27.75174,-1.01539 12.28119,-0.11422 21.29993,0.49873 27.85063,2.11305 11.7163,2.88731 15.53755,8.97795 16.009,19.84075 0.30851,7.10823 -0.81734,16.25987 -2.10399,27.8945 -0.93714,8.31154 -2.10561,16.55587 -3.49878,24.72635 -1.40512,8.24059 -3.03881,16.40605 -4.89426,24.48956 -1.86908,8.14293 -3.9632,16.2027 -6.27537,24.17235 -2.32662,8.01942 -4.87403,15.94759 -7.63514,23.77741 -2.77552,7.87068 -5.76698,15.64198 -8.96718,23.30671 -3.21428,7.6984 -6.63915,15.2894 -10.26728,22.7655 -3.64089,7.5024 -7.48649,14.8891 -11.52941,22.1528 -4.05429,7.2842 -8.30702,14.4446 -12.75074,21.4738 -4.45323,7.0443 -9.09827,13.9569 -13.92763,20.7302 -4.83645,6.7832 -9.85776,13.4269 -15.05641,19.9233 -5.20404,6.5032 -10.58579,12.8589 -16.1377,19.0596 -5.55462,6.2038 -11.27957,12.2523 -17.1673,18.1382 -5.88741,5.8855 -11.93757,11.6083 -18.14292,17.1608 -6.20233,5.5498 -12.55971,10.9295 -19.06459,16.1316 -6.49833,5.1968 -13.14387,10.2163 -19.92909,15.051 -6.77447,4.8271 -13.68817,9.4698 -20.73364,13.9209 -7.03033,4.4415 -14.19184,8.6921 -21.47712,12.7443 -7.26484,4.0409 -14.65275,7.8846 -22.15634,11.5236 -7.4769,3.6261 -15.06866,7.049 -22.76799,10.2614 -7.66556,3.1984 -15.43775,6.1881 -23.30937,8.962 -7.83055,2.7594 -15.7595,5.3053 -23.77974,7.6304 -7.96949,2.3105 -16.02914,4.403 -24.17197,6.2707 -8.08361,1.8542 -16.24921,3.4867 -24.48998,4.8908 -8.17066,1.3921 -16.41523,2.5598 -24.72707,3.4962 -8.23101,0.9274 -16.528,1.628 -24.88451,2.0955 -8.26521,0.4624 -16.58866,0.6967 -24.96411,0.6967 v 0 m 104.7,-476.59998 c 6.42011,0 12.73645,0.55975 18.8741,1.65757 6.30009,1.12687 12.41191,2.82067 18.25442,5.05794 5.94909,2.27808 11.61896,5.11963 16.92406,8.4999 5.33302,3.39807 10.29742,7.34053 14.8063,11.80224 4.44903,4.40248 8.45455,9.31051 11.93309,14.69993 3.35425,5.19687 6.21849,10.84135 8.51787,16.91175 2.16788,5.72325 3.83365,11.82511 4.93459,18.28742 1.0204,5.98959 1.55557,12.28883 1.55557,18.88325 0,7.27312 -0.57466,14.27317 -1.69232,20.965 -1.19238,7.13925 -3.00279,13.92769 -5.39277,20.32263 -2.5099,6.7158 -5.659,12.99763 -9.40274,18.79604 -3.83487,5.93954 -8.29369,11.37186 -13.32859,16.2438 -5.00073,4.83887 -10.56975,9.12496 -16.66016,12.80619 -5.87424,3.55058 -12.23352,6.53848 -19.03575,8.91698 -6.42025,2.24494 -13.23509,3.94704 -20.40915,5.06694 -6.69003,1.0443 -13.69243,1.5824 -20.97852,1.5824 -8.1564,0 -15.91592,-0.6628 -23.2408,-1.9263 -8.02374,-1.38415 -15.52596,-3.4891 -22.45705,-6.23333 -7.52035,-2.97753 -14.36834,-6.70766 -20.48061,-11.08619 -6.48597,-4.64622 -12.14349,-10.02256 -16.89687,-16.0045 -4.86262,-6.11942 -8.77905,-12.8726 -11.66825,-20.12626 -8.07822,-21.35385 -9.69056,-21.31256 15.69358,-22.6234 23.88338,-0.60865 18.68018,3.93912 28.39116,17.25412 3.73704,5.03046 8.61706,9.06947 14.23982,12.19455 5.3344,2.96481 11.33731,5.10703 17.66698,6.49285 6.05157,1.32494 12.4018,1.95848 18.75204,1.95848 8.21302,0 16.26665,-1.54526 23.67571,-4.55369 7.47172,-3.03388 14.28791,-7.55578 19.95095,-13.48154 5.36328,-5.61209 9.69226,-12.48335 12.56422,-20.54226 2.51182,-7.04832 3.90912,-15.0051 3.90912,-23.82251 0,-8.33022 -1.58786,-15.93222 -4.41892,-22.69068 -3.0834,-7.36085 -7.6415,-13.7211 -13.22904,-18.93177 -5.65888,-5.27719 -12.37364,-9.37527 -19.68178,-12.13949 -7.16502,-2.7101 -14.90041,-4.13806 -22.77026,-4.13806 -5.90903,0 -11.44441,0.73902 -16.56974,2.02926 -5.70366,1.43582 -10.89953,3.55428 -15.53747,6.09654 -6.76674,5.70093 -13.04342,9.97711 -18.77717,12.94599 -8.58198,4.44367 -15.94768,5.95865 -21.91987,4.93871 -7.49966,-1.28079 -12.80183,-6.559 -15.55558,-15.05481 -1.95137,-6.02034 -2.62306,-13.65639 -1.89017,-22.63069 l 1.67497,-21.43717 1.67498,-21.43718 1.67501,-21.43766 1.67501,-21.43766 c 0.0187,-11.84298 0.26607,-20.42657 1.36884,-26.64492 1.99884,-11.27118 6.80793,-14.77157 18.15901,-15.82582 6.51149,-0.60477 15.17574,-0.40459 26.69718,-0.40459 h 21.43717 21.43718 21.43766 21.43766 21.43767 c 22.28793,0.0406 21.43766,-0.91183 21.43766,20.05 -0.0857,23.11358 -1.37147,20.05 -22.283,20.05 h -22.28299 -22.2835 -22.2835 -22.2835 -22.28351 c -0.55833,7.24167 -1.11666,14.48334 -1.675,21.725 l -1.675,21.725 -1.675,21.725 c -0.55834,7.24167 -1.11667,14.48334 -1.675,21.725 v 0 c 2.3142,-3.86851 6.22705,-8.26195 11.73445,-12.35617 4.09903,-3.04725 9.08136,-5.92873 14.94528,-8.30468 4.87689,-1.97602 10.36357,-3.60236 16.45906,-4.68356 5.23775,-0.92905 10.92503,-1.45559 17.06121,-1.45559 v 0"
       style="fill:#014d80;fill-opacity:1;stroke:#014d80;stroke-width:20;stroke-miterlimit:4;stroke-dasharray:none;stroke-opacity:1" /></g></g>
</svg>