<?xml version="1.0" encoding="UTF-8" standalone="no"?>
<!-- Created with Inkscape (http://www.inkscape.org/) -->

<svg
   xmlns:dc="http://purl.org/dc/elements/1.1/"
   xmlns:cc="http://creativecommons.org/ns#"
   xmlns:rdf="http://www.w3.org/1999/02/22-rdf-syntax-ns#"
   xmlns:svg="http://www.w3.org/2000/svg"
   xmlns="http://www.w3.org/2000/svg"
   xmlns:sodipodi="http://sodipodi.sourceforge.net/DTD/sodipodi-0.dtd"
   xmlns:inkscape="http://www.inkscape.org/namespaces/inkscape"
   width="499.99997"
   height="500.00003"
   id="svg3459"
   version="1.1"
   inkscape:version="0.91 r13725"
   viewBox="0 0 499.99997 500.00003"
   sodipodi:docname="man-with-briefcase.svg">
  <defs
     id="defs3461" />
  <sodipodi:namedview
     id="base"
     pagecolor="#ffffff"
     bordercolor="#666666"
     borderopacity="1.0"
     inkscape:pageopacity="0.0"
     inkscape:pageshadow="2"
     inkscape:zoom="0.97227183"
     inkscape:cx="-69.011874"
     inkscape:cy="302.1597"
     inkscape:current-layer="layer1"
     showgrid="true"
     inkscape:document-units="px"
     inkscape:grid-bbox="true"
     showborder="false"
     inkscape:window-width="1354"
     inkscape:window-height="712"
     inkscape:window-x="0"
     inkscape:window-y="0"
     inkscape:window-maximized="1"
     fit-margin-top="0"
     fit-margin-left="0"
     fit-margin-right="0"
     fit-margin-bottom="0" />
  <metadata
     id="metadata3464">
    <rdf:RDF>
      <cc:Work
         rdf:about="">
        <dc:format>image/svg+xml</dc:format>
        <dc:type
           rdf:resource="http://purl.org/dc/dcmitype/StillImage" />
        <dc:title />
      </cc:Work>
    </rdf:RDF>
  </metadata>
  <g
     id="layer1"
     inkscape:label="Layer 1"
     inkscape:groupmode="layer"
     transform="translate(213.81816,192.72729)">
    <ellipse
       style="opacity:1;fill:#ffffff;fill-opacity:1;stroke:#014d80;stroke-width:14.84713268;stroke-miterlimit:4;stroke-dasharray:none;stroke-opacity:1"
       id="path4204"
       cx="42.233044"
       cy="52.646317"
       rx="242.77826"
       ry="242.33459"
       transform="matrix(0.99312828,0.11703085,-0.10942857,0.99399466,0,0)" />
    <g
       transform="matrix(0.14965552,0,0,0.14965552,-127.69783,-81.243786)"
       id="g13753"
       style="fill:#014d80;fill-opacity:1">
      <path
         style="fill:#014d80;fill-opacity:1"
         d="M 497.3457,-1.984375 C 407.98003,-2.2149245 322.60322,61.411432 297.48815,147.22364 c -22.3111,71.27497 -4.02886,154.22105 48.24427,208.00878 47.42507,50.54766 120.55977,76.32147 189.07728,63.86026 68.69041,-11.34421 130.83974,-58.2602 158.62261,-122.38623 27.43713,-60.7223 24.64595,-134.63486 -9.51532,-192.16201 C 650.63849,46.421286 588.77574,5.1865562 521.81445,-0.89648438 513.68848,-1.7346469 505.51435,-2.1022473 497.3457,-1.984375 Z m 4.57227,70.154297 C 566.59951,68.123543 628.31295,118.74466 639.21756,183.09577 649.437,235.39363 627.88986,292.71553 584.2414,323.80943 541.79024,355.4004 480.83375,361.06502 434.3205,335.33659 389.66729,312.06523 358.64008,263.93523 358.40625,213.23438 357.07552,163.4851 383.7037,113.49096 427.1875,88.580078 449.61608,75.061824 475.8168,67.736565 501.91797,68.169922 Z"
         id="path13755"
         inkscape:connector-curvature="0" />
      <path
         style="fill:#014d80;fill-opacity:1"
         d="m 498.57422,426.40234 c -17.32686,0.29045 -28.69338,15.59997 -39.83008,26.73243 -19.84011,21.40013 -43.42284,39.76878 -60.48633,63.68164 -7.31749,16.20024 0.31326,35.95425 14.30478,45.91607 17.78447,17.78384 35.56895,35.56767 53.35343,53.3515 -24.01073,73.69276 -47.88308,147.44763 -70.69336,221.51758 -3.16081,9.56995 -1.92246,20.13491 3.57226,28.61719 7.96171,13.58239 18.55507,25.33339 26.81487,38.66676 17.66773,25.14017 33.61301,51.89577 54.07966,74.92504 17.44815,12.87045 45.10237,4.53414 53.4945,-15.19507 23.737,-35.5727 50.27319,-69.43615 71.8805,-106.34009 5.41223,-17.98752 -5.64911,-35.1142 -9.80116,-52.03236 -20.22728,-63.50068 -40.7938,-126.89407 -60.81798,-190.45983 21.54009,-22.60942 45.32006,-43.17725 65.32031,-67.20117 10.21849,-15.83001 3.02261,-37.66116 -11.18325,-48.53331 -24.77588,-22.55314 -46.23591,-48.97847 -72.57846,-69.81239 -5.35385,-2.74176 -11.41857,-4.08295 -17.42969,-3.83399 z m 21.14453,104.58594 c -6.56901,6.55143 -13.13802,13.10287 -19.70703,19.6543 -6.55143,-6.55143 -13.10287,-13.10287 -19.6543,-19.6543 6.55143,-6.56901 13.10287,-13.13802 19.6543,-19.70703 6.56901,6.56901 13.13802,13.13802 19.70703,19.70703 z m 13.15039,310.74219 c -10.92708,15.79557 -21.85417,31.59114 -32.78125,47.38672 -10.95247,-15.79948 -21.90495,-31.59896 -32.85742,-47.39844 10.92708,-34.13411 21.85417,-68.26823 32.78125,-102.40234 10.95247,34.13802 21.90495,68.27604 32.85742,102.41406 z"
         id="path13757"
         inkscape:connector-curvature="0" />
      <path
         style="fill:#014d80;fill-opacity:1"
         d="m 730.93359,442.89844 c -25.26475,0.48837 -42.29433,33.79414 -27.01757,54.27539 9.20059,14.28972 27.59368,16.42409 42.47265,20.9707 35.08088,12.42077 64.68696,41.63621 74.13283,78.024 16.57908,52.74258 10.07109,108.94333 11.30332,163.57557 -0.28485,39.91775 1.71623,80.13669 -2.23498,119.78715 -6.29794,24.35538 -28.72244,41.76721 -52.75734,46.68116 -38.21296,9.87439 -77.89656,3.84446 -116.93602,5.52001 -15.45024,0.0707 -31.66023,-1.58528 -46.44531,3.75586 -20.45532,10.17258 -25.81921,42.19381 -7.76172,57.16211 12.31082,11.43711 30.33882,10.27321 45.86719,9.24221 46.70946,-0.7324 94.32661,4.1508 140.26302,-6.64319 40.99625,-10.42274 80.04382,-36.48323 97.79325,-75.92863 13.7849,-29.66164 13.85172,-63.20646 12.45546,-95.22312 -0.50034,-64.27994 2.68158,-128.73281 -2.60438,-192.87961 C 893.7072,580.98041 876.07155,529.5977 838.50224,494.17968 809.23929,466.4436 770.99887,447.80883 730.93359,442.89844 Z"
         id="path13759"
         inkscape:connector-curvature="0" />
      <path
         style="fill:#014d80;fill-opacity:1"
         d="m 265.6543,442.69336 c -59.14876,9.48295 -114.62961,46.78845 -140.80885,101.4099 -25.353251,50.6272 -27.880431,108.67986 -27.233735,164.22469 0.539376,52.47651 -0.392567,104.97169 0.605082,157.43767 0.548076,22.44732 6.065803,44.88834 17.931493,64.1026 17.99383,30.73306 48.71862,52.80595 82.73062,62.59076 46.94689,14.56142 96.65472,8.15542 144.94726,9.72912 13.29158,-0.3177 26.95422,0.3013 39.93945,-2.72326 21.92401,-8.50777 29.30936,-41.5744 11.35352,-57.56054 -11.78916,-11.91738 -29.89315,-11.13117 -45.33398,-10.50977 -42.49686,-0.75072 -85.54966,3.87467 -127.31303,-5.21919 -22.42842,-5.90499 -45.26934,-20.88695 -51.10299,-44.65386 -6.69643,-25.64658 -1.58837,-52.46802 -3.08203,-78.65625 0.4022,-58.92323 -3.15287,-118.20523 4.02547,-176.77223 5.39937,-36.01983 21.13478,-73.16046 52.73939,-93.39001 18.226,-12.12875 39.3054,-17.83374 59.93631,-24.68346 20.5797,-11.67978 22.58103,-45.95561 2.07617,-58.71289 -6.17926,-4.41912 -13.80309,-6.84172 -21.41015,-6.61328 z"
         id="path13761"
         inkscape:connector-curvature="0" />
    </g>
    <path
       style="fill:#014d80;fill-opacity:1"
       d="m 71.91836,48.818748 c -5.186718,0.01346 -6.010589,6.329948 -5.205723,10.24066 1.414002,6.439273 -0.829302,9.221239 -7.424319,7.651495 -13.396795,0.30052 -26.896264,-0.551778 -40.242445,0.331903 -6.09631,1.392838 -8.654111,8.29169 -7.593492,13.960875 0.155837,30.392819 -0.304167,60.828279 0.215898,91.196019 1.126339,6.3528 8.235385,9.22996 14.078491,8.0849 47.27269,-0.13772 94.58152,0.27244 141.8322,-0.19979 6.39135,-1.08281 9.32112,-8.22419 8.16223,-14.0946 -0.15394,-30.39353 0.30056,-60.82899 -0.2159,-91.197628 -1.12888,-6.351093 -8.23633,-9.227095 -14.07849,-8.081679 -13.65528,0 -27.31058,0 -40.96586,0 -0.95426,-5.264064 1.96589,-11.787265 -1.54996,-16.347033 -4.48684,-3.491571 -10.92605,-0.607538 -16.11502,-1.546734 -10.299199,0.0011 -20.598471,-0.0021 -30.89761,0.0017 z m 37.97875,10.583842 c 1.7957,6.981561 -1.93584,8.43587 -8.24924,7.308313 -8.11713,0 -16.234267,0 -24.35139,0 -1.795711,-6.981562 1.935833,-8.435872 8.249241,-7.308313 8.117129,0 16.234269,0 24.351389,0 z m 55.26025,17.892155 c -0.43523,10.023109 0.85842,20.257469 -0.61708,30.158055 -2.50059,7.50278 -11.40904,6.9794 -17.76971,6.61874 -13.31586,0 -26.63173,0 -39.94759,0 -0.88233,-4.84382 2.46609,-12.62087 -3.30776,-15.360986 -6.340875,-0.84798 -13.033351,-0.44899 -19.424388,-0.15146 -6.099518,2.236706 -2.998439,10.223616 -3.721831,14.956586 -3.835304,1.29952 -10.086249,0.18341 -14.848638,0.55586 -12.111659,-0.32091 -24.353643,0.63143 -36.388503,-0.45436 -7.085256,-1.9511 -7.82496,-10.18265 -7.095636,-16.284186 0,-6.67942 -1e-6,-13.358834 0,-20.038249 47.707043,0 95.414096,0 143.121136,0 z M 96.239135,108.90931 c 3.28604,6.32385 -7.63503,7.61972 -5.284675,1.0376 -0.499812,-2.29176 3.972975,-0.44393 5.284675,-1.0376 z m -74.101408,13.16174 c 9.146561,4.8384 19.952326,1.67017 29.793943,2.58593 9.47911,0 18.95822,0 28.437331,0 -1.414061,8.37059 6.018863,16.87926 14.618234,15.67357 7.579355,-0.58739 12.964735,-8.32956 11.835745,-15.67357 17.25789,-0.25426 34.57397,0.47905 51.80105,-0.30934 2.28831,-0.40058 4.50915,-1.19115 6.53173,-2.3346 0,15.89536 0,31.79073 0,47.6861 -47.70652,0 -95.41303,0 -143.119536,0 0.06711,-15.81642 -0.134564,-32.10742 0.101503,-47.62809 z m 74.101408,2.58593 c 1.89919,3.59821 -3.49061,7.47767 -5.163841,3.30616 -1.469522,-4.57751 2.025625,-3.09704 5.163841,-3.30616 z"
       id="path13865"
       inkscape:connector-curvature="0" />
  </g>
</svg>
