<?xml version="1.0" encoding="UTF-8" standalone="no"?>
<!-- Created with Inkscape (http://www.inkscape.org/) -->

<svg
   xmlns:dc="http://purl.org/dc/elements/1.1/"
   xmlns:cc="http://creativecommons.org/ns#"
   xmlns:rdf="http://www.w3.org/1999/02/22-rdf-syntax-ns#"
   xmlns:svg="http://www.w3.org/2000/svg"
   xmlns="http://www.w3.org/2000/svg"
   xmlns:sodipodi="http://sodipodi.sourceforge.net/DTD/sodipodi-0.dtd"
   xmlns:inkscape="http://www.inkscape.org/namespaces/inkscape"
   width="499.99997"
   height="500.00003"
   id="svg3459"
   version="1.1"
   inkscape:version="0.91 r13725"
   viewBox="0 0 499.99997 500.00003"
   sodipodi:docname="man-with-briefcase.svg">
  <defs
     id="defs3461" />
  <sodipodi:namedview
     id="base"
     pagecolor="#ffffff"
     bordercolor="#666666"
     borderopacity="1.0"
     inkscape:pageopacity="0.0"
     inkscape:pageshadow="2"
     inkscape:zoom="0.97227183"
     inkscape:cx="258.91781"
     inkscape:cy="302.1597"
     inkscape:current-layer="layer1"
     showgrid="true"
     inkscape:document-units="px"
     inkscape:grid-bbox="true"
     showborder="false"
     inkscape:window-width="1354"
     inkscape:window-height="712"
     inkscape:window-x="0"
     inkscape:window-y="0"
     inkscape:window-maximized="1"
     fit-margin-top="0"
     fit-margin-left="0"
     fit-margin-right="0"
     fit-margin-bottom="0" />
  <metadata
     id="metadata3464">
    <rdf:RDF>
      <cc:Work
         rdf:about="">
        <dc:format>image/svg+xml</dc:format>
        <dc:type
           rdf:resource="http://purl.org/dc/dcmitype/StillImage" />
        <dc:title></dc:title>
      </cc:Work>
    </rdf:RDF>
  </metadata>
  <g
     id="layer1"
     inkscape:label="Layer 1"
     inkscape:groupmode="layer"
     transform="translate(213.81816,192.72729)">
    <ellipse
       style="opacity:1;fill:#ffffff;fill-opacity:1;stroke:#014d80;stroke-width:14.84713268;stroke-miterlimit:4;stroke-dasharray:none;stroke-opacity:1"
       id="path4204"
       cx="42.233044"
       cy="52.646317"
       rx="242.77826"
       ry="242.33459"
       transform="matrix(0.99312828,0.11703085,-0.10942857,0.99399466,0,0)" />
    <g
       transform="matrix(0.19688373,0,0,0.19688373,-166.43406,-105.77516)"
       id="g13753"
       style="fill:#014d80;fill-opacity:1">
      <path
         style="fill:#014d80;fill-opacity:1"
         d="M 497.36328,2.015625 C 414.41797,1.9584382 334.77063,57.49007 305.89036,135.21514 c -25.53632,65.89037 -15.06848,144.82217 28.67605,200.66572 40.29798,53.02277 106.94972,85.4468 173.73925,81.93237 66.72865,-2.56609 131.43743,-39.02317 166.91572,-95.82357 C 710.77605,266.692 718.50439,194.11666 693.328,133.12645 669.247,72.584087 615.60367,24.36528 552.15625,8.6367188 534.29659,3.9982387 515.816,1.7327691 497.36328,2.015625 Z m 3.1875,62.191406 c 62.28522,-0.521935 122.07562,43.769499 139.1287,103.964979 15.36089,50.86468 0.636,110.09717 -38.63465,146.65582 -38.69121,37.36767 -98.3908,51.23544 -149.04469,32.57239 -48.24059,-16.90375 -86.54743,-60.10402 -95.17787,-110.78889 -9.38006,-49.73826 8.86542,-104.16894 47.89257,-136.708986 26.34278,-22.711433 60.94396,-36.067536 95.83594,-35.695313 z"
         id="path13755"
         inkscape:connector-curvature="0" />
      <path
         style="fill:#014d80;fill-opacity:1"
         d="m 498.67578,430.40234 c -15.94974,0.25447 -25.94308,14.78952 -36.33594,24.75391 -19.63287,20.88706 -42.02893,39.37835 -59.77148,61.92773 -7.24056,14.05451 -1.29244,32.18756 11.18759,41.18561 18.90947,18.90884 37.81895,37.81767 56.72843,56.7265 -21.30529,64.07773 -41.17201,128.63594 -62.10961,192.82729 -3.8238,13.121 -8.65512,26.13758 -11.12086,39.54185 0.34109,17.34289 15.0855,29.39329 23.1913,43.20735 20.07079,28.19916 38.36367,57.90993 60.14463,84.86101 14.77889,12.41117 40.04541,6.34044 47.98051,-11.14575 23.90633,-35.30765 49.47335,-69.56698 72.15035,-105.65893 5.94608,-15.80136 -3.90784,-31.48678 -7.75087,-46.40788 -20.94302,-65.86051 -42.32484,-131.59523 -63.05772,-197.514 19.40136,-19.96839 39.70637,-39.04696 58.82984,-59.28403 5.84635,-5.84779 11.56792,-12.68766 11.71313,-21.40347 1.03662,-12.49262 -5.78477,-24.51534 -15.71598,-31.73535 -23.28851,-22.45227 -44.89135,-46.96357 -69.55941,-67.9541 -5.00041,-2.7946 -10.77927,-4.18049 -16.50391,-3.92774 z m 26.70313,100.58985 c -8.45703,8.43424 -16.91407,16.86849 -25.3711,25.30273 -8.43424,-8.43424 -16.86849,-16.86849 -25.30273,-25.30273 8.43424,-8.45703 16.86849,-16.91406 25.30273,-25.3711 8.45703,8.45703 16.91407,16.91407 25.3711,25.3711 z m 11.90039,311.39453 c -12.39584,17.91927 -24.79167,35.83854 -37.1875,53.75781 -12.42383,-17.92187 -24.84766,-35.84375 -37.27149,-53.76562 12.39584,-38.72266 24.79167,-77.44532 37.1875,-116.16797 12.42383,38.72526 24.84766,77.45052 37.27149,116.17578 z"
         id="path13757"
         inkscape:connector-curvature="0" />
      <path
         style="fill:#014d80;fill-opacity:1"
         d="m 731.26172,446.91211 c -21.61832,0.48015 -36.80598,27.92637 -25.04102,46.31641 6.86368,12.56234 21.81832,16.15015 34.70899,18.89453 36.23629,10.99693 68.61151,38.10814 80.59887,74.67789 18.74944,50.2919 13.66351,104.93693 14.34295,157.6971 -0.21616,43.81852 1.10122,87.75235 -1.41057,131.48438 -4.32566,24.17434 -23.79662,44.01598 -46.81836,51.06446 -36.83729,13.20559 -76.45506,7.46292 -114.77149,8.68945 -17.97397,0.19353 -36.28505,-1.32828 -54.0332,1.80469 -19.40938,6.67903 -27.22152,34.62415 -12.76953,49.74804 9.3109,10.87032 24.79222,12.267 38.11102,10.71268 43.35243,-0.78359 87.01245,2.71156 130.12726,-3.13846 41.99042,-6.94472 83.80648,-28.66441 105.90039,-66.24805 16.33208,-27.36073 19.83472,-60.21725 17.94963,-91.46868 -0.53909,-63.88652 1.79772,-127.84577 -1.32157,-191.68208 -4.01034,-50.81001 -18.61313,-103.41926 -54.18759,-141.45389 -28.96531,-30.77254 -68.79501,-51.1244 -110.5518,-57.118 l -0.83398,0.0195 z"
         id="path13759"
         inkscape:connector-curvature="0" />
      <path
         style="fill:#014d80;fill-opacity:1"
         d="m 265.71484,446.69336 c -51.73244,8.86133 -100.98804,38.33821 -128.54882,83.71094 -27.69308,43.72733 -34.37621,96.73857 -35.51563,147.45898 -0.48768,45.14739 0.71519,90.29697 0.0312,135.44727 0.20691,24.10513 -0.65808,48.38323 2.26172,72.3457 7.26289,42.31936 37.53152,79.39633 77.11924,95.78668 37.65336,17.05055 79.92866,17.73196 120.49795,16.44547 25.93247,-0.16901 52.02149,1.31016 77.85156,-1.18332 20.32046,-5.59861 29.27909,-34.34877 14.67383,-50 -8.98287,-10.85363 -24.1681,-12.45682 -37.29259,-11.19826 -41.49944,-0.7954 -83.25815,2.68167 -124.45161,-2.96664 -24.4488,-4.47557 -50.08719,-16.60925 -61.34565,-40.09096 -11.12032,-24.8226 -5.52913,-53.44348 -6.75552,-80.08984 0.34301,-57.17745 -2.18159,-114.64126 2.12915,-171.60834 3.76744,-36.56006 14.58997,-74.74767 42.52903,-100.45662 20.0534,-18.67884 46.52637,-27.65604 72.26727,-34.77489 19.10699,-9.26916 22.52557,-39.69858 4.75586,-52.07226 -5.68527,-4.48839 -12.95237,-6.98723 -20.20704,-6.75391 z"
         id="path13761"
         inkscape:connector-curvature="0" />
    </g>
    <path
       style="fill:#014d80;fill-opacity:1"
       d="m 95.085938,36.292969 c -6.287508,0.01631 -7.286232,7.67337 -6.310547,12.414062 1.714099,7.805896 -1.005307,11.178287 -9,9.275391 -16.240032,0.364301 -32.604528,-0.668882 -48.783203,0.402344 -7.390146,1.688444 -10.490796,10.051458 -9.205079,16.923828 0.188911,36.843176 -0.36872,73.738026 0.261719,110.550786 1.365385,7.70107 9.983202,11.18886 17.066406,9.80078 57.305494,-0.16694 114.654796,0.33026 171.933596,-0.24219 7.7478,-1.31262 11.29937,-9.96963 9.89453,-17.08594 -0.18661,-36.84401 0.36434,-73.73887 -0.26172,-110.552733 -1.36847,-7.699002 -9.98435,-11.185385 -17.06641,-9.796875 -16.55338,0 -33.10677,0 -49.66015,0 -1.15678,-6.38127 2.38311,-14.288906 -1.87891,-19.816406 -5.4391,-4.232595 -13.24492,-0.736477 -19.53515,-1.875 -12.48502,0.0013 -24.97013,-0.0026 -37.455082,0.002 z M 141.125,49.123047 c 2.17682,8.463276 -2.34668,10.226237 -10,8.859375 -9.83984,0 -19.67969,0 -29.51953,0 -2.176819,-8.463276 2.34668,-10.226238 10,-8.859375 9.83984,0 19.67969,0 29.51953,0 z M 208.11328,70.8125 c -0.5276,12.150335 1.0406,24.556758 -0.74805,36.55859 -3.03129,9.09511 -13.83041,8.46065 -21.54101,8.02344 -16.14193,0 -32.28386,0 -48.42578,0 -1.06959,-5.87182 2.98948,-15.29942 -4.00977,-18.621092 -7.68661,-1.027943 -15.79945,-0.544265 -23.54687,-0.183594 -7.39403,2.711408 -3.6348,12.393396 -4.51172,18.130856 -4.64928,1.57533 -12.226879,0.22234 -18.000002,0.67383 -14.682148,-0.38901 -29.522279,0.76545 -44.111328,-0.55078 -8.588979,-2.36519 -9.485672,-12.34374 -8.601562,-19.740234 0,-8.097006 -10e-7,-16.194011 0,-24.291016 57.832031,0 115.664062,0 173.496092,0 z m -83.54492,38.32422 c 3.98345,7.66597 -9.25542,9.23686 -6.40625,1.25781 -0.60589,-2.77814 4.81617,-0.53815 6.40625,-1.25781 z M 34.740234,125.0918 c 11.087759,5.86527 24.186859,2.02463 36.117188,3.13476 11.490885,0 22.981771,0 34.472658,0 -1.71417,10.14709 7.29626,20.46158 17.7207,19 9.18792,-0.71205 15.71627,-10.09737 14.34766,-19 20.92058,-0.30823 41.9117,0.58071 62.79492,-0.375 2.77397,-0.48559 5.46614,-1.44396 7.91797,-2.83008 0,19.26888 0,38.53776 0,57.80664 -57.83138,10e-6 -115.662762,0 -173.494142,0 0.08136,-19.17317 -0.163122,-38.92166 0.123046,-57.73632 z m 89.828126,3.13476 c 2.30227,4.36186 -4.23142,9.06466 -6.25977,4.00782 -1.7814,-5.549 2.45553,-3.75433 6.25977,-4.00782 z"
       id="path13865"
       inkscape:connector-curvature="0" />
  </g>
</svg>
