<?xml version="1.0" encoding="UTF-8" standalone="no"?>
<!-- Created with Inkscape (http://www.inkscape.org/) -->

<svg
   xmlns:dc="http://purl.org/dc/elements/1.1/"
   xmlns:cc="http://creativecommons.org/ns#"
   xmlns:rdf="http://www.w3.org/1999/02/22-rdf-syntax-ns#"
   xmlns:svg="http://www.w3.org/2000/svg"
   xmlns="http://www.w3.org/2000/svg"
   xmlns:sodipodi="http://sodipodi.sourceforge.net/DTD/sodipodi-0.dtd"
   xmlns:inkscape="http://www.inkscape.org/namespaces/inkscape"
   width="499.99997"
   height="500.00003"
   id="svg8748"
   version="1.1"
   inkscape:version="0.91 r13725"
   viewBox="0 0 499.99997 500.00003"
   sodipodi:docname="management.svg">
  <defs
     id="defs8750" />
  <sodipodi:namedview
     id="base"
     pagecolor="#ffffff"
     bordercolor="#666666"
     borderopacity="1.0"
     inkscape:pageopacity="0.0"
     inkscape:pageshadow="2"
     inkscape:zoom="0.97227183"
     inkscape:cx="138.66224"
     inkscape:cy="256.90911"
     inkscape:current-layer="layer1"
     showgrid="true"
     inkscape:document-units="px"
     inkscape:grid-bbox="true"
     inkscape:window-width="1354"
     inkscape:window-height="712"
     inkscape:window-x="0"
     inkscape:window-y="0"
     inkscape:window-maximized="1"
     fit-margin-top="0"
     fit-margin-left="0"
     fit-margin-right="0"
     fit-margin-bottom="0" />
  <metadata
     id="metadata8753">
    <rdf:RDF>
      <cc:Work
         rdf:about="">
        <dc:format>image/svg+xml</dc:format>
        <dc:type
           rdf:resource="http://purl.org/dc/dcmitype/StillImage" />
        <dc:title />
      </cc:Work>
    </rdf:RDF>
  </metadata>
  <g
     id="layer1"
     inkscape:label="Layer 1"
     inkscape:groupmode="layer"
     transform="translate(232.54544,211.09093)">
    <ellipse
       style="opacity:1;fill:#ffffff;fill-opacity:1;stroke:#014d80;stroke-width:14.84713268;stroke-miterlimit:4;stroke-dasharray:none;stroke-opacity:1"
       id="path4204"
       cx="21.608124"
       cy="36.600071"
       rx="242.77826"
       ry="242.33459"
       transform="matrix(0.99312828,0.11703085,-0.10942857,0.99399466,0,0)" />
    <g
       transform="matrix(0.46717638,0,0,0.46717638,-116.80506,-108.09128)"
       id="g4235"
       style="fill:#014d80;fill-opacity:1">
      <g
         id="g4237"
         style="fill:#014d80;fill-opacity:1">
        <path
           style="fill:#014d80;fill-opacity:1"
           d="m 531.33398,159.57617 c -25.78239,1.67237 -52.24304,-2.0626 -77.5039,1.98242 -10.95744,5.72739 -10.81137,25.55984 2.21484,28.66016 7.58946,2.88131 16.50133,-0.88391 23.67969,2.5918 5.15292,4.85923 0.72769,13.0201 -4.86523,15.27929 -32.39616,29.5461 -64.47545,59.43687 -96.77344,89.08985 -41.70628,-17.62436 -81.96501,-38.44129 -124.37891,-54.23047 -14.05848,1.4157 -23.30587,13.56202 -35.37938,19.54917 -41.0598,27.44388 -83.69558,52.60059 -123.433119,81.93911 -7.204286,10.85467 4.612784,28.79611 17.677739,23.14062 12.78024,-4.3923 22.0602,-14.86774 34.03674,-20.92415 35.94351,-23.42366 71.88674,-46.84778 107.83044,-70.27116 42.3371,17.91985 83.29942,39.09126 126.40625,55.08789 13.27819,-1.24242 20.06735,-14.3442 29.84854,-21.70692 35.48424,-32.49401 70.75981,-65.2157 106.18076,-97.77745 4.28873,15.14198 -3.5971,31.70953 4.65039,45.83984 7.95262,11.5175 29.76988,3.9292 27.63672,-10.48633 0.7594,-20.73753 -0.67637,-41.66711 0.41163,-62.4785 0.20922,-8.74262 -0.65367,-21.19204 -10.93702,-24.10353 -2.33183,-0.84594 -4.82386,-1.24122 -7.30274,-1.18164 z"
           id="path4239"
           inkscape:connector-curvature="0" />
        <path
           style="fill:#014d80;fill-opacity:1"
           d="M 23.300781,43.763672 C 12.200093,43.650805 5.2845141,56.755019 8,66.658203 8.3872896,230.2003 7.197134,393.77151 8.6425781,557.29492 c 3.4730379,10.57985 16.6164189,12.75322 26.2480449,10.94459 186.170467,-0.37879 372.379237,0.81674 558.525397,-0.64967 13.10354,-3.75667 14.4821,-26.66052 -0.0176,-29.55859 -12.85772,-3.51904 -26.26636,0.18536 -39.35742,-1.20117 -13.01758,0 -26.03516,0 -39.05274,0 0,-78.93425 0,-157.86849 0,-236.80274 -7.7461,-2.75005 -14.66405,-7.47841 -20.63086,-13.07617 -5.25561,4.16739 -12.75075,9.11016 -10.78515,16.93164 0,77.64909 0,155.29818 0,232.94727 -31.66928,0 -63.33855,0 -95.00782,0 -0.3415,-55.30921 0.58746,-110.77426 -0.4375,-165.98438 -10.51705,1.24389 -21.21343,-0.83096 -30.96093,-4.79687 -0.0507,56.92772 -0.0342,113.85547 -0.0352,170.7832 -31.67513,0 -63.35026,0 -95.02539,0 -0.0521,-71.34561 0.10417,-142.81175 -0.0781,-214.08203 -3.97084,-2.57154 -8.05901,0.32404 -10.80459,3.12698 -6.84443,4.45963 -13.68886,8.91925 -20.5333,13.37888 0,65.85872 0,131.71745 0,197.57617 -31.67578,0 -63.35156,0 -95.02734,0 -0.0808,-45.14394 0.16153,-90.81824 -0.12109,-135.63086 -9.57857,4.97845 -20.47465,7.69724 -31.29493,6.91797 0,42.90365 0,85.80729 0,128.71094 -21.606767,0 -43.213538,0 -64.820309,0 C 38.922157,376.04929 40.399744,215.21679 38.646484,54.46875 36.506737,48.160075 30.031685,43.405885 23.300781,43.763672 Z"
           id="path4241"
           inkscape:connector-curvature="0" />
      </g>
    </g>
  </g>
</svg>
