<?xml version="1.0" encoding="utf-8"?>
<!DOCTYPE svg PUBLIC "-//W3C//DTD SVG 1.1//EN" "http://www.w3.org/Graphics/SVG/1.1/DTD/svg11.dtd">
<svg version="1.1" xmlns="http://www.w3.org/2000/svg" xmlns:xlink="http://www.w3.org/1999/xlink" x="0px" y="0px" viewBox="0 0 1000 1000" enable-background="new 0 0 1000 1000" xml:space="preserve">
<g><path d="M462.3,179.6v640.8c0,10.2-3.7,19-11.2,26.5s-16.3,11.2-26.5,11.2c-10.2,0-19-3.7-26.5-11.2L202,650.8H47.7c-10.2,0-19-3.7-26.5-11.2c-7.5-7.5-11.2-16.3-11.2-26.5V386.9c0-10.2,3.7-19,11.2-26.5c7.5-7.5,16.3-11.2,26.5-11.2H202l196.1-196.1c7.5-7.5,16.3-11.2,26.5-11.2c10.2,0,19,3.7,26.5,11.2C458.6,160.6,462.3,169.4,462.3,179.6z M688.5,500c0,29.8-8.3,57.6-25,83.3c-16.7,25.7-38.8,44.1-66.3,55.1c-3.9,2-8.8,2.9-14.7,2.9c-10.2,0-19-3.6-26.5-10.9c-7.5-7.3-11.2-16.2-11.2-26.8c0-8.2,2.4-15.2,7.1-20.9c4.7-5.7,10.4-10.6,17.1-14.7c6.7-4.1,13.3-8.6,20-13.5s12.4-11.9,17.1-20.9c4.7-9,7.1-20.2,7.1-33.6s-2.4-24.5-7.1-33.6c-4.7-9-10.4-16-17.1-20.9s-13.3-9.4-20-13.5c-6.7-4.1-12.4-9-17.1-14.7c-4.7-5.7-7.1-12.7-7.1-20.9c0-10.6,3.7-19.5,11.2-26.8c7.5-7.3,16.3-10.9,26.5-10.9c5.9,0,10.8,1,14.7,2.9c27.5,10.6,49.6,28.9,66.3,54.8C680.1,442.3,688.5,470.2,688.5,500z M839.2,500c0,60.1-16.7,115.5-50.1,166.4s-77.5,87.9-132.5,111c-5.1,2-10,2.9-14.7,2.9c-10.6,0-19.6-3.7-27.1-11.2s-11.2-16.3-11.2-26.5c0-15.3,7.7-26.9,23-34.7c22-11.4,36.9-20,44.8-25.9c29.1-21.2,51.7-47.8,68-79.8c16.3-32,24.4-66.1,24.4-102.2c0-36.1-8.1-70.2-24.4-102.2c-16.3-32-39-58.6-68-79.8c-7.9-5.9-22.8-14.5-44.8-25.9c-15.3-7.9-23-19.4-23-34.7c0-10.2,3.7-19,11.2-26.5c7.5-7.5,16.3-11.2,26.5-11.2c5.1,0,10.2,1,15.3,2.9c55,23.2,99.1,60.2,132.5,111C822.5,384.5,839.2,439.9,839.2,500z M990,500c0,90.3-24.9,173.2-74.8,248.8c-49.9,75.6-116.2,131.2-199.1,167c-5.1,2-10.2,2.9-15.3,2.9c-10.2,0-19-3.7-26.5-11.2c-7.5-7.5-11.2-16.3-11.2-26.5c0-14.1,7.7-25.7,23-34.7c2.7-1.6,7.2-3.6,13.3-6.2c6.1-2.6,10.5-4.6,13.3-6.2c18.1-9.8,34.2-19.8,48.3-30c48.3-35.7,86-80.3,113.1-133.7c27.1-53.4,40.6-110.1,40.6-170.2c0-60.1-13.5-116.8-40.6-170.2c-27.1-53.4-64.8-98-113.1-133.7c-14.1-10.2-30.2-20.2-48.3-30c-2.7-1.6-7.2-3.6-13.3-6.2c-6.1-2.6-10.5-4.6-13.3-6.2c-15.3-9-23-20.6-23-34.7c0-10.2,3.7-19,11.2-26.5c7.5-7.5,16.3-11.2,26.5-11.2c5.1,0,10.2,1,15.3,2.9c82.8,35.7,149.2,91.4,199.1,167S990,409.7,990,500z" fill="#014D80"/></g>
</svg>