<?xml version="1.0" encoding="UTF-8" standalone="no"?>
<!-- Created with Inkscape (http://www.inkscape.org/) -->

<svg
   xmlns:dc="http://purl.org/dc/elements/1.1/"
   xmlns:cc="http://creativecommons.org/ns#"
   xmlns:rdf="http://www.w3.org/1999/02/22-rdf-syntax-ns#"
   xmlns:svg="http://www.w3.org/2000/svg"
   xmlns="http://www.w3.org/2000/svg"
   xmlns:xlink="http://www.w3.org/1999/xlink"
   xmlns:sodipodi="http://sodipodi.sourceforge.net/DTD/sodipodi-0.dtd"
   xmlns:inkscape="http://www.inkscape.org/namespaces/inkscape"
   width="499.99997"
   height="500.00003"
   id="svg10105"
   version="1.1"
   inkscape:version="0.91 r13725"
   viewBox="0 0 499.99997 500.00003"
   sodipodi:docname="optimization.svg">
  <defs
     id="defs10107" />
  <sodipodi:namedview
     id="base"
     pagecolor="#ffffff"
     bordercolor="#666666"
     borderopacity="1.0"
     inkscape:pageopacity="0.0"
     inkscape:pageshadow="2"
     inkscape:zoom="0.6875"
     inkscape:cx="64.404914"
     inkscape:cy="300.53813"
     inkscape:current-layer="layer1"
     showgrid="true"
     inkscape:document-units="px"
     inkscape:grid-bbox="true"
     inkscape:window-width="1354"
     inkscape:window-height="712"
     inkscape:window-x="0"
     inkscape:window-y="0"
     inkscape:window-maximized="1"
     fit-margin-top="0"
     fit-margin-left="0"
     fit-margin-right="0"
     fit-margin-bottom="0" />
  <metadata
     id="metadata10110">
    <rdf:RDF>
      <cc:Work
         rdf:about="">
        <dc:format>image/svg+xml</dc:format>
        <dc:type
           rdf:resource="http://purl.org/dc/dcmitype/StillImage" />
        <dc:title></dc:title>
      </cc:Work>
    </rdf:RDF>
  </metadata>
  <g
     id="layer1"
     inkscape:label="Layer 1"
     inkscape:groupmode="layer"
     transform="translate(230.90907,224.18184)">
    <ellipse
       style="opacity:1;fill:#ffffff;fill-opacity:1;stroke:#014d80;stroke-width:14.84713268;stroke-miterlimit:4;stroke-dasharray:none;stroke-opacity:1"
       id="path4204"
       cx="21.802147"
       cy="23.407227"
       rx="242.77826"
       ry="242.33459"
       transform="matrix(0.99312828,0.11703085,-0.10942857,0.99399466,0,0)" />
    <g
       id="layer1-5"
       transform="matrix(11.099384,0,0,11.099384,-158.70658,-11475.507)"
       style="fill:#014d80;fill-opacity:1">
      <path
         sodipodi:type="inkscape:offset"
         inkscape:radius="0"
         inkscape:original="M 13.5 1022.3594 A 0.50005 0.50005 0 0 0 13.005859 1022.7852 L 12.535156 1025.957 C 12.041277 1026.1218 11.561308 1026.3198 11.095703 1026.5527 L 8.5214844 1024.6426 A 0.50005 0.50005 0 0 0 7.8691406 1024.6934 L 4.3320312 1028.2305 A 0.50005 0.50005 0 0 0 4.2832031 1028.8809 L 6.1914062 1031.4531 C 5.9586942 1031.9198 5.7599443 1032.4016 5.5957031 1032.8965 L 2.4277344 1033.3652 A 0.50005 0.50005 0 0 0 2 1033.8594 L 2 1038.8594 A 0.50005 0.50005 0 0 0 2.4257812 1039.3535 L 5.5996094 1039.8242 C 5.7641086 1040.3171 5.9628723 1040.797 6.1953125 1041.2617 L 4.2832031 1043.8379 A 0.50005 0.50005 0 0 0 4.3320312 1044.4902 L 7.8691406 1048.0273 A 0.50005 0.50005 0 0 0 8.5214844 1048.0762 L 11.091797 1046.168 C 11.559001 1046.401 12.041568 1046.5992 12.537109 1046.7637 L 13.001953 1049.9062 L 13.005859 1049.9277 A 0.50004997 0.50004997 0 0 0 13.576172 1050.3555 L 18.423828 1050.3555 A 0.50004997 0.50004997 0 0 0 19 1049.8926 L 19.464844 1046.7598 C 19.958723 1046.595 20.438692 1046.397 20.904297 1046.1641 L 23.478516 1048.0742 A 0.50005 0.50005 0 0 0 24.130859 1048.0254 L 27.667969 1044.4883 A 0.50005 0.50005 0 0 0 27.716797 1043.8379 L 25.808594 1041.2637 C 26.041306 1040.797 26.240055 1040.3172 26.404297 1039.8223 L 29.572266 1039.3516 A 0.50005 0.50005 0 0 0 30 1038.8594 L 30 1033.8594 A 0.50005 0.50005 0 0 0 29.574219 1033.3633 L 26.400391 1032.8926 C 26.235891 1032.3997 26.037127 1031.9198 25.804688 1031.4551 L 27.716797 1028.8789 A 0.50005 0.50005 0 0 0 27.667969 1028.2285 L 24.130859 1024.6914 A 0.50005 0.50005 0 0 0 23.478516 1024.6406 L 20.908203 1026.5469 C 20.440999 1026.3139 19.958432 1026.1157 19.462891 1025.9512 L 18.994141 1022.7832 A 0.50005 0.50005 0 0 0 18.5 1022.3594 L 13.5 1022.3594 z M 13.931641 1023.3594 L 18.068359 1023.3594 L 18.515625 1026.377 A 0.50005 0.50005 0 0 0 18.867188 1026.7832 C 19.518148 1026.9773 20.147825 1027.2369 20.746094 1027.5586 A 0.50005 0.50005 0 0 0 21.28125 1027.5195 L 23.728516 1025.7031 L 26.65625 1028.6309 L 24.833984 1031.0859 A 0.50005 0.50005 0 0 0 24.796875 1031.6191 C 25.118108 1032.2151 25.377719 1032.8418 25.572266 1033.4902 A 0.50005 0.50005 0 0 0 25.976562 1033.8438 L 29 1034.2891 L 29 1038.4277 L 25.982422 1038.873 A 0.50005 0.50005 0 0 0 25.576172 1039.2246 C 25.382091 1039.8756 25.122472 1040.5053 24.800781 1041.1035 A 0.50005 0.50005 0 0 0 24.837891 1041.6387 L 26.65625 1044.0879 L 23.728516 1047.0137 L 21.275391 1045.1934 A 0.50005 0.50005 0 0 0 20.740234 1045.1543 C 20.185632 1045.4532 19.600881 1045.6933 19 1045.8828 L 19 1041.5469 C 20.790346 1040.5074 22 1038.5741 22 1036.3594 C 21.9974 1034.1081 20.731915 1032.0467 18.726562 1031.0234 A 0.50005 0.50005 0 0 0 18 1031.4668 L 18 1036.0762 L 16 1037.2754 L 14 1036.0762 L 14 1031.4609 A 0.50005 0.50005 0 0 0 13.484375 1030.9609 A 0.50005 0.50005 0 0 0 13.273438 1031.0176 C 11.266063 1032.042 10.000237 1034.1076 10 1036.3613 C 10 1038.576 11.209654 1040.5093 13 1041.5488 L 13 1045.8887 C 12.396883 1045.6996 11.810766 1045.4596 11.253906 1045.1602 A 0.50005 0.50005 0 0 0 10.71875 1045.1992 L 8.2714844 1047.0156 L 5.34375 1044.0898 L 7.1660156 1041.6348 A 0.50005 0.50005 0 0 0 7.203125 1041.0996 C 6.8818919 1040.5036 6.6222814 1039.8769 6.4277344 1039.2285 A 0.50005 0.50005 0 0 0 6.0234375 1038.877 L 3 1038.4277 L 3 1034.291 L 6.0175781 1033.8438 A 0.50005 0.50005 0 0 0 6.4238281 1033.4922 C 6.6179086 1032.8412 6.877528 1032.2115 7.1992188 1031.6133 A 0.50005 0.50005 0 0 0 7.1621094 1031.0781 L 5.34375 1028.6289 L 8.2714844 1025.7031 L 10.724609 1027.5234 A 0.50005 0.50005 0 0 0 11.259766 1027.5625 C 11.855661 1027.2413 12.484405 1026.9798 13.132812 1026.7852 A 0.50005 0.50005 0 0 0 13.482422 1026.3809 L 13.931641 1023.3594 z M 13 1032.5781 L 13 1036.3594 A 0.50005 0.50005 0 0 0 13.242188 1036.7871 L 15.742188 1038.2871 A 0.50005 0.50005 0 0 0 16.257812 1038.2871 L 18.757812 1036.7871 A 0.50005 0.50005 0 0 0 19 1036.3594 L 19 1032.584 C 20.170508 1033.5201 20.998219 1034.8242 21 1036.3594 C 21 1039.1267 18.767346 1041.3594 16 1041.3594 C 13.232654 1041.3594 11 1039.1267 11 1036.3594 C 11.000162 1034.8225 11.828321 1033.5154 13 1032.5781 z M 14 1042.0078 C 14.626956 1042.2307 15.29766 1042.3594 16 1042.3594 C 16.70234 1042.3594 17.373044 1042.2307 18 1042.0078 L 18 1049.3594 L 14 1049.3594 L 14 1042.0078 z "
         xlink:href="#rect4745"
         style="color:#000000;font-style:normal;font-variant:normal;font-weight:normal;font-stretch:normal;font-size:medium;line-height:normal;font-family:sans-serif;text-indent:0;text-align:start;text-decoration:none;text-decoration-line:none;text-decoration-style:solid;text-decoration-color:#000000;letter-spacing:normal;word-spacing:normal;text-transform:none;direction:ltr;block-progression:tb;writing-mode:lr-tb;baseline-shift:baseline;text-anchor:start;white-space:normal;clip-rule:nonzero;display:inline;overflow:visible;visibility:visible;opacity:1;isolation:auto;mix-blend-mode:normal;color-interpolation:sRGB;color-interpolation-filters:linearRGB;solid-color:#000000;solid-opacity:1;fill:#014d80;fill-opacity:1;fill-rule:nonzero;stroke:none;stroke-width:1;stroke-linecap:round;stroke-linejoin:round;stroke-miterlimit:4.0999999;stroke-dasharray:none;stroke-dashoffset:0;stroke-opacity:1;color-rendering:auto;image-rendering:auto;shape-rendering:auto;text-rendering:auto;enable-background:accumulate"
         id="path10835"
         inkscape:href="#rect4745"
         d="m 13.5,1022.3594 a 0.50005,0.50005 0 0 0 -0.494141,0.4258 l -0.470703,3.1718 c -0.493879,0.1648 -0.973848,0.3628 -1.439453,0.5957 l -2.5742186,-1.9101 a 0.50005,0.50005 0 0 0 -0.6523438,0.051 l -3.5371094,3.5371 a 0.50005,0.50005 0 0 0 -0.048828,0.6504 l 1.9082031,2.5722 c -0.232712,0.4667 -0.4314619,0.9485 -0.5957031,1.4434 l -3.1679687,0.4687 A 0.50005,0.50005 0 0 0 2,1033.8594 l 0,5 a 0.50005,0.50005 0 0 0 0.4257812,0.4941 l 3.1738282,0.4707 c 0.1644992,0.4929 0.3632629,0.9728 0.5957031,1.4375 l -1.9121094,2.5762 a 0.50005,0.50005 0 0 0 0.048828,0.6523 l 3.5371094,3.5371 a 0.50005,0.50005 0 0 0 0.6523438,0.049 l 2.5703126,-1.9082 c 0.467204,0.233 0.949771,0.4312 1.445312,0.5957 l 0.464844,3.1425 0.0039,0.022 a 0.50004997,0.50004997 0 0 0 0.570313,0.4278 l 4.847656,0 A 0.50004997,0.50004997 0 0 0 19,1049.8926 l 0.464844,-3.1328 c 0.493879,-0.1648 0.973848,-0.3628 1.439453,-0.5957 l 2.574219,1.9101 a 0.50005,0.50005 0 0 0 0.652343,-0.049 l 3.53711,-3.5371 a 0.50005,0.50005 0 0 0 0.04883,-0.6504 l -1.908203,-2.5742 c 0.232712,-0.4667 0.431461,-0.9465 0.595703,-1.4414 l 3.167969,-0.4707 A 0.50005,0.50005 0 0 0 30,1038.8594 l 0,-5 a 0.50005,0.50005 0 0 0 -0.425781,-0.4961 l -3.173828,-0.4707 c -0.1645,-0.4929 -0.363264,-0.9728 -0.595703,-1.4375 l 1.912109,-2.5762 a 0.50005,0.50005 0 0 0 -0.04883,-0.6504 l -3.53711,-3.5371 a 0.50005,0.50005 0 0 0 -0.652343,-0.051 l -2.570313,1.9063 c -0.467204,-0.233 -0.949771,-0.4312 -1.445312,-0.5957 l -0.46875,-3.168 A 0.50005,0.50005 0 0 0 18.5,1022.3594 l -5,0 z m 0.431641,1 4.136718,0 0.447266,3.0176 a 0.50005,0.50005 0 0 0 0.351563,0.4062 c 0.65096,0.1941 1.280637,0.4537 1.878906,0.7754 a 0.50005,0.50005 0 0 0 0.535156,-0.039 l 2.447266,-1.8164 2.927734,2.9278 -1.822266,2.455 a 0.50005,0.50005 0 0 0 -0.03711,0.5332 c 0.321233,0.596 0.580844,1.2227 0.775391,1.8711 a 0.50005,0.50005 0 0 0 0.404296,0.3536 L 29,1034.2891 l 0,4.1386 -3.017578,0.4453 a 0.50005,0.50005 0 0 0 -0.40625,0.3516 c -0.194081,0.651 -0.4537,1.2807 -0.775391,1.8789 a 0.50005,0.50005 0 0 0 0.03711,0.5352 l 1.818359,2.4492 -2.927734,2.9258 -2.453125,-1.8203 a 0.50005,0.50005 0 0 0 -0.535157,-0.039 c -0.554602,0.2989 -1.139353,0.539 -1.740234,0.7285 l 0,-4.3359 c 1.790346,-1.0395 3,-2.9728 3,-5.1875 -0.0026,-2.2513 -1.268085,-4.3127 -3.273438,-5.336 A 0.50005,0.50005 0 0 0 18,1031.4668 l 0,4.6094 -2,1.1992 -2,-1.1992 0,-4.6153 a 0.50005,0.50005 0 0 0 -0.515625,-0.5 0.50005,0.50005 0 0 0 -0.210937,0.057 c -2.007375,1.0244 -3.273201,3.09 -3.273438,5.3437 0,2.2147 1.209654,4.148 3,5.1875 l 0,4.3399 c -0.603117,-0.1891 -1.189234,-0.4291 -1.746094,-0.7285 a 0.50005,0.50005 0 0 0 -0.535156,0.039 l -2.4472656,1.8164 -2.9277344,-2.9258 1.8222656,-2.455 a 0.50005,0.50005 0 0 0 0.037109,-0.5352 c -0.3212331,-0.596 -0.5808436,-1.2227 -0.7753906,-1.8711 A 0.50005,0.50005 0 0 0 6.0234375,1038.877 L 3,1038.4277 l 0,-4.1367 3.0175781,-0.4472 a 0.50005,0.50005 0 0 0 0.40625,-0.3516 c 0.1940805,-0.651 0.4536999,-1.2807 0.7753907,-1.8789 a 0.50005,0.50005 0 0 0 -0.037109,-0.5352 l -1.8183594,-2.4492 2.9277344,-2.9258 2.4531246,1.8203 a 0.50005,0.50005 0 0 0 0.535157,0.039 c 0.595895,-0.3212 1.224638,-0.5827 1.873046,-0.7773 a 0.50005,0.50005 0 0 0 0.34961,-0.4043 l 0.449219,-3.0215 z M 13,1032.5781 l 0,3.7813 a 0.50005,0.50005 0 0 0 0.242188,0.4277 l 2.5,1.5 a 0.50005,0.50005 0 0 0 0.515624,0 l 2.5,-1.5 A 0.50005,0.50005 0 0 0 19,1036.3594 l 0,-3.7754 c 1.170508,0.9361 1.998219,2.2402 2,3.7754 0,2.7673 -2.232654,5 -5,5 -2.767346,0 -5,-2.2327 -5,-5 1.62e-4,-1.5369 0.828321,-2.844 2,-3.7813 z m 1,9.4297 c 0.626956,0.2229 1.29766,0.3516 2,0.3516 0.70234,0 1.373044,-0.1287 2,-0.3516 l 0,7.3516 -4,0 0,-7.3516 z" />
      <path
         inkscape:connector-curvature="0"
         d="m 13.5,1022.3602 a 0.50005,0.50005 0 0 0 -0.494141,0.4258 l -0.470703,3.1719 c -0.493879,0.1648 -0.973848,0.3628 -1.439453,0.5957 l -2.5742186,-1.9101 a 0.50005,0.50005 0 0 0 -0.6523438,0.049 l -3.5371094,3.5371 a 0.50005,0.50005 0 0 0 -0.048828,0.6504 l 1.9082031,2.5722 c -0.2327121,0.4667 -0.4314619,0.9485 -0.5957031,1.4434 l -3.1679687,0.4688 A 0.50005,0.50005 0 0 0 2,1033.8602 l 0,5 a 0.50005,0.50005 0 0 0 0.4257812,0.4942 l 3.1738282,0.4707 c 0.1644992,0.4929 0.3632629,0.9728 0.5957031,1.4375 l -1.9121094,2.5762 a 0.50005,0.50005 0 0 0 0.048828,0.6523 l 3.5371094,3.5371 a 0.50005,0.50005 0 0 0 0.6523438,0.047 l 2.5703127,-1.9063 c 0.467204,0.233 0.949771,0.4312 1.445312,0.5957 l 0.464844,3.1407 0.0039,0.023 a 0.50004997,0.50004997 0 0 0 0.570313,0.4277 l 4.847656,0 A 0.50004997,0.50004997 0 0 0 19,1049.8935 l 0.464844,-3.1329 c 0.493879,-0.1648 0.973848,-0.3628 1.439453,-0.5957 l 2.574219,1.9102 a 0.50005,0.50005 0 0 0 0.652343,-0.049 l 3.53711,-3.5371 a 0.50005,0.50005 0 0 0 0.04883,-0.6504 l -1.908203,-2.5743 c 0.232712,-0.4667 0.431461,-0.9465 0.595703,-1.4414 l 3.167969,-0.4707 A 0.50005,0.50005 0 0 0 30,1038.8602 l 0,-5 a 0.50005,0.50005 0 0 0 -0.425781,-0.496 l -3.173828,-0.4707 c -0.1645,-0.4929 -0.363264,-0.9728 -0.595703,-1.4375 l 1.912109,-2.5762 a 0.50005,0.50005 0 0 0 -0.04883,-0.6504 l -3.53711,-3.5371 a 0.50005,0.50005 0 0 0 -0.652343,-0.051 l -2.570313,1.9062 c -0.467204,-0.233 -0.949771,-0.4312 -1.445312,-0.5957 l -0.468748,-3.1679 A 0.50005,0.50005 0 0 0 18.5,1022.3602 l -5,0 z m 0.431641,1 4.136718,0 0.447266,3.0176 a 0.50005,0.50005 0 0 0 0.351563,0.4063 c 0.65096,0.1941 1.280637,0.4537 1.878906,0.7754 a 0.50005,0.50005 0 0 0 0.535156,-0.039 l 2.447266,-1.8164 2.927734,2.9258 -1.822266,2.4551 a 0.50005,0.50005 0 0 0 -0.03711,0.5351 c 0.321233,0.596 0.580844,1.2227 0.775391,1.8711 a 0.50005,0.50005 0 0 0 0.404296,0.3516 L 29,1034.2899 l 0,4.1387 -3.017578,0.4453 a 0.50005,0.50005 0 0 0 -0.40625,0.3516 c -0.194081,0.651 -0.4537,1.2807 -0.775391,1.8789 a 0.50005,0.50005 0 0 0 0.03711,0.5351 l 1.818359,2.4493 -2.927734,2.9257 -2.453125,-1.8203 a 0.50005,0.50005 0 0 0 -0.535157,-0.039 c -0.554602,0.2989 -1.139353,0.539 -1.740234,0.7285 l 0,-4.336 c 1.790346,-1.0395 3,-2.9728 3,-5.1875 -0.0026,-2.2513 -1.268086,-4.3126 -3.273438,-5.3359 A 0.50005,0.50005 0 0 0 18,1031.4677 l 0,4.6093 -2,1.1993 -2,-1.1993 0,-4.6152 a 0.50005,0.50005 0 0 0 -0.515625,-0.5 0.50005,0.50005 0 0 0 -0.210937,0.055 c -2.007375,1.0244 -3.273201,3.09 -3.273438,5.3437 0,2.2147 1.209654,4.148 3,5.1875 l 0,4.3399 c -0.603117,-0.1891 -1.189234,-0.4291 -1.746094,-0.7285 a 0.50005,0.50005 0 0 0 -0.535156,0.039 l -2.4472656,1.8164 -2.9277344,-2.9257 1.8222656,-2.4551 a 0.50005,0.50005 0 0 0 0.037109,-0.5352 c -0.3212331,-0.596 -0.5808436,-1.2227 -0.7753906,-1.8711 a 0.50005,0.50005 0 0 0 -0.4042969,-0.3515 L 3,1038.4286 l 0,-4.1367 3.0175781,-0.4473 a 0.50005,0.50005 0 0 0 0.40625,-0.3515 c 0.1940805,-0.651 0.4536999,-1.2807 0.7753907,-1.8789 a 0.50005,0.50005 0 0 0 -0.037109,-0.5352 l -1.8183594,-2.4492 2.9277344,-2.9258 2.4531242,1.8203 a 0.50005,0.50005 0 0 0 0.535157,0.039 c 0.595895,-0.3212 1.224638,-0.5828 1.873046,-0.7774 a 0.50005,0.50005 0 0 0 0.34961,-0.4043 l 0.449219,-3.0215 z M 13,1032.579 l 0,3.7812 a 0.50005,0.50005 0 0 0 0.242188,0.4278 l 2.5,1.5 a 0.50005,0.50005 0 0 0 0.515624,0 l 2.5,-1.5 A 0.50005,0.50005 0 0 0 19,1036.3602 l 0,-3.7753 c 1.170508,0.9361 1.998219,2.2401 2,3.7753 0,2.7673 -2.232654,5 -5,5 -2.767346,0 -5,-2.2327 -5,-5 1.62e-4,-1.5369 0.828321,-2.8439 2,-3.7812 z m 1,9.4297 c 0.626956,0.2229 1.29766,0.3515 2,0.3515 0.70234,0 1.373044,-0.1286 2,-0.3515 l 0,7.3515 -4,0 0,-7.3515 z"
         id="rect4745"
         style="color:#000000;font-style:normal;font-variant:normal;font-weight:normal;font-stretch:normal;font-size:medium;line-height:normal;font-family:sans-serif;text-indent:0;text-align:start;text-decoration:none;text-decoration-line:none;text-decoration-style:solid;text-decoration-color:#000000;letter-spacing:normal;word-spacing:normal;text-transform:none;direction:ltr;block-progression:tb;writing-mode:lr-tb;baseline-shift:baseline;text-anchor:start;white-space:normal;clip-rule:nonzero;display:inline;overflow:visible;visibility:visible;opacity:1;isolation:auto;mix-blend-mode:normal;color-interpolation:sRGB;color-interpolation-filters:linearRGB;solid-color:#000000;solid-opacity:1;fill:#014d80;fill-opacity:1;fill-rule:nonzero;stroke:none;stroke-width:1;stroke-linecap:round;stroke-linejoin:round;stroke-miterlimit:4.0999999;stroke-dasharray:none;stroke-dashoffset:0;stroke-opacity:1;color-rendering:auto;image-rendering:auto;shape-rendering:auto;text-rendering:auto;enable-background:accumulate" />
    </g>
  </g>
</svg>
