<?xml version="1.0" encoding="utf-8"?>
<!DOCTYPE svg PUBLIC "-//W3C//DTD SVG 1.1//EN" "http://www.w3.org/Graphics/SVG/1.1/DTD/svg11.dtd">
<svg version="1.1" xmlns="http://www.w3.org/2000/svg" xmlns:xlink="http://www.w3.org/1999/xlink" x="0px" y="0px" viewBox="0 0 1000 1000" enable-background="new 0 0 1000 1000" xml:space="preserve">
<g><path d="M647.3,830.3"/><path d="M500,990C229.4,990,10,770.6,10,500C10,229.4,229.4,10,500,10c270.6,0,490,219.4,490,490C990,770.6,770.6,990,500,990 M500,101.9c-219.9,0-398.1,178.3-398.1,398.1c0,219.9,178.3,398.1,398.1,398.1c219.9,0,398.1-178.3,398.1-398.1C898.1,280.1,719.9,101.9,500,101.9 M637.8,622.5c0,25.4-20.6,45.9-45.9,45.9c-25.3,0-45.9-20.5-45.9-45.8h0v-245h0c0,0,0-0.1,0-0.1c0-25.4,20.6-45.9,45.9-45.9c25.4,0,45.9,20.6,45.9,45.9c0,0.4,0,0.7,0,1.1v242.9C637.8,621.8,637.8,622.1,637.8,622.5 M454.1,622.5c0,25.4-20.6,45.9-45.9,45.9c-25.3,0-45.9-20.5-45.9-45.8h0v-245h0c0,0,0-0.1,0-0.1c0-25.4,20.6-45.9,45.9-45.9c25.4,0,45.9,20.6,45.9,45.9c0,0.4,0,0.7,0,1.1v242.9C454,621.8,454.1,622.1,454.1,622.5" fill="#014D80"/></g>
</svg>