<?xml version="1.0" encoding="UTF-8" standalone="no"?>
<!-- Created with Inkscape (http://www.inkscape.org/) -->

<svg
   xmlns:dc="http://purl.org/dc/elements/1.1/"
   xmlns:cc="http://creativecommons.org/ns#"
   xmlns:rdf="http://www.w3.org/1999/02/22-rdf-syntax-ns#"
   xmlns:svg="http://www.w3.org/2000/svg"
   xmlns="http://www.w3.org/2000/svg"
   xmlns:sodipodi="http://sodipodi.sourceforge.net/DTD/sodipodi-0.dtd"
   xmlns:inkscape="http://www.inkscape.org/namespaces/inkscape"
   width="499.99997"
   height="500.00003"
   id="svg12088"
   version="1.1"
   inkscape:version="0.91 r13725"
   viewBox="0 0 499.99997 500.00003"
   sodipodi:docname="recovery.svg">
  <defs
     id="defs12090" />
  <sodipodi:namedview
     id="base"
     pagecolor="#ffffff"
     bordercolor="#666666"
     borderopacity="1.0"
     inkscape:pageopacity="0.0"
     inkscape:pageshadow="2"
     inkscape:zoom="0.48613591"
     inkscape:cx="315.73551"
     inkscape:cy="298.44578"
     inkscape:current-layer="layer1"
     showgrid="true"
     inkscape:document-units="px"
     inkscape:grid-bbox="true"
     inkscape:window-width="1354"
     inkscape:window-height="712"
     inkscape:window-x="0"
     inkscape:window-y="0"
     inkscape:window-maximized="1"
     fit-margin-top="0"
     fit-margin-left="0"
     fit-margin-right="0"
     fit-margin-bottom="0" />
  <metadata
     id="metadata12093">
    <rdf:RDF>
      <cc:Work
         rdf:about="">
        <dc:format>image/svg+xml</dc:format>
        <dc:type
           rdf:resource="http://purl.org/dc/dcmitype/StillImage" />
        <dc:title></dc:title>
      </cc:Work>
    </rdf:RDF>
  </metadata>
  <g
     id="layer1"
     inkscape:label="Layer 1"
     inkscape:groupmode="layer"
     transform="translate(219.27271,189.09093)">
    <ellipse
       style="opacity:1;fill:#ffffff;fill-opacity:1;stroke:#014d80;stroke-width:14.84713268;stroke-miterlimit:4;stroke-dasharray:none;stroke-opacity:1"
       id="path4204"
       cx="37.20903"
       cy="56.896168"
       rx="242.77826"
       ry="242.33459"
       transform="matrix(0.99312828,0.11703085,-0.10942857,0.99399466,0,0)" />
    <g
       transform="matrix(0.37923339,0,0,0.37923339,-162.16071,-145.98622)"
       id="g12175"
       style="fill:#014d80;fill-opacity:1">
      <g
         transform="matrix(0.1,0,0,-0.1,0,511)"
         id="g12177"
         style="fill:#014d80;fill-opacity:1">
        <path
           inkscape:connector-curvature="0"
           d="m 4684.976,5085.214 c -260.4,-135.4 -494.7,-385.3 -796.7,-848.7 -416.6,-645.7 -604,-859.2 -963.3,-1103.9 -921.7,-614.4 -1463.2,-1296.6 -1780.8,-2233.80009 -786.30006,-2306.69991 562.4,-4790.59991 2947.2,-5415.39991 593.6,-156.2 1458,-151 2051.6,0 1536.1,406.2 2681.6,1572.6 3046.1,3098.2 125,510.29994 135.4,1353.799912 31.2,1858.89991 -218.7,1036.20009 -885.2,1994.30009 -1827.7,2634.80009 -416.6,286.4 -624.8,515.5 -1041.4,1145.6 -359.3,557.1 -562.4,765.4 -843.6,885.2 -223.8,88.4 -629.9,83.3 -822.6,-20.9 z m 926.9,-546.7 c 119.7,-125 317.6,-385.3 442.6,-583.2 l 223.9,-354.1 -145.8,31.2 c -692.5,145.8 -1296.6,156.2 -1885,26 -125,-26 -239.5,-41.6 -250,-26 -41.6,41.7 489.5,786.3 682.1,958.1 161.4,140.6 234.3,166.6 453,166.6 234.4,0.1 276.1,-20.8 479.2,-218.6 z m 583.2,-1343.4 c 203,-62.5 473.8,-171.8 614.4,-239.6 l 244.7,-124.9 -421.8,-588.4 c -578,-796.7 -510.3,-744.7 -812.3,-640.5 -395.7,135.4 -781.1,156.2 -1161.2,57.3 -187.5,-46.9 -385.3,-93.7 -442.6,-109.4 -83.3,-20.8 -187.5,88.5 -520.7,562.4 -229.1,317.6 -437.4,614.4 -458.2,650.9 -57.3,93.7 588.4,395.7 1083.1,505 505.1,114.6 1385.1,78.1 1874.6,-72.8 z M 2773.976,810.21391 c 286.4,-208.3 374.9,-302.1 348.9,-364.5 -93.7,-239.5 -182.2,-682.1 -182.2,-895.6 0,-208.3 52.1,-463.39997 182.2,-864.39991 31.3,-93.7 -57.3,-177 -624.8,-588.3 l -656.1,-473.9 -182.2,380.1 c -260.4,546.7 -348.9,1036.19997 -317.6,1728.79991 26,598.8 187.5,1223.6 406.2,1588.10009 l 104.1,161.4 270.8,-197.9 c 145.6,-104.1 442.4,-322.80009 650.7,-473.80009 z m 5894.4,46.9 c 364.5,-999.8 307.2,-2061.99991 -161.4,-2988.79991 l -125,-244.7 -661.3,479.1 -656.1,473.8 98.9,286.4 c 130.2,385.29991 130.2,1010.19991 0,1384.99991 l -98.9,281.2 656.1,473.79999 c 755.1,546.7001 692.6,551.9001 947.7,-145.79999 z m -2796.2,286.40009 c 380.1,-182.30009 781.1,-619.60009 900.8,-978.90009 229.1,-666.5 46.9,-1421.49991 -453,-1890.09991 -374.9,-348.9 -656.1,-458.2 -1192.4,-463.4 -374.9,-5.2 -489.5,15.6 -729,130.2 -401,187.4 -630.1,406.1 -833.1,786.3 -437.4,822.69991 -161.4,1848.49991 624.8,2322.2999 390.5,234.3001 536.3,270.8001 994.6,249.9001 307.2,-10.5 468.6,-47 687.3,-156.3 z m -978.9,-3749 c 234.3,-36.5 676.9,31.2 1098.7,151 93.7,31.3 182.2,-62.5 583.2,-619.6 l 473.8,-656.1 -322.8,-151 c -525.9,-250 -932.1,-338.5 -1598.6,-338.5 -666.5,-5.2 -1057,78.1 -1603.8,333.2 -229.1,109.4 -317.6,171.8 -291.6,218.7 20.8,36.4 234.3,338.4 473.8,671.7 l 437.4,609.2 244.7,-93.7 c 135.5,-52.1 364.6,-109.4 505.2,-124.9 z"
           id="path12179"
           style="fill:#014d80;fill-opacity:1"
           sodipodi:nodetypes="ccccccccccccccccccccccccccccccccccscccccccccccccccccccccccccccccccccccccccc" />
      </g>
    </g>
  </g>
</svg>
