<?xml version="1.0" encoding="utf-8"?>
<!DOCTYPE svg PUBLIC "-//W3C//DTD SVG 1.1//EN" "http://www.w3.org/Graphics/SVG/1.1/DTD/svg11.dtd">
<svg version="1.1" xmlns="http://www.w3.org/2000/svg" xmlns:xlink="http://www.w3.org/1999/xlink" x="0px" y="0px" viewBox="0 0 1000 1000" enable-background="new 0 0 1000 1000" xml:space="preserve">
<g><path d="M500,10c-164.2,0-309.3,81-398.1,205v-82.5c0-25.4-20.6-45.9-45.9-45.9c-25.4,0-45.9,20.6-45.9,45.9v183.8c0,25.4,20.6,45.9,45.9,45.9H255c25.4,0,45.9-20.6,45.9-45.9c0-25.4-20.6-45.9-45.9-45.9h-79.9C247.2,168.5,365.7,101.9,500,101.9c219.9,0,398.1,178.2,398.1,398.1c0,219.9-178.2,398.1-398.1,398.1c-219.9,0-398.1-178.2-398.1-398.1c0-25.4-20.6-45.9-45.9-45.9C30.6,454.1,10,474.6,10,500c0,270.6,219.4,490,490,490c270.6,0,490-219.4,490-490C990,229.4,770.6,10,500,10z" fill="#014D80"/><path d="M385,668.4l255.4-145.5c23.4-13.3,23.4-35.1,0-48.5L385,329c-23.4-13.3-42.6-2.4-42.6,24.2V644C342.4,670.8,361.6,681.7,385,668.4z" fill="#014D80"/></g>
</svg>