<?xml version="1.0" encoding="UTF-8" standalone="no"?>
<!-- Created with Inkscape (http://www.inkscape.org/) -->

<svg
   xmlns:dc="http://purl.org/dc/elements/1.1/"
   xmlns:cc="http://creativecommons.org/ns#"
   xmlns:rdf="http://www.w3.org/1999/02/22-rdf-syntax-ns#"
   xmlns:svg="http://www.w3.org/2000/svg"
   xmlns="http://www.w3.org/2000/svg"
   xmlns:sodipodi="http://sodipodi.sourceforge.net/DTD/sodipodi-0.dtd"
   xmlns:inkscape="http://www.inkscape.org/namespaces/inkscape"
   width="499.99997"
   height="500.00003"
   id="svg6208"
   version="1.1"
   inkscape:version="0.91 r13725"
   viewBox="0 0 499.99997 500.00003"
   sodipodi:docname="speedometer.svg">
  <defs
     id="defs6210" />
  <sodipodi:namedview
     id="base"
     pagecolor="#ffffff"
     bordercolor="#666666"
     borderopacity="1.0"
     inkscape:pageopacity="0.0"
     inkscape:pageshadow="2"
     inkscape:zoom="0.6875"
     inkscape:cx="251.63634"
     inkscape:cy="322.36365"
     inkscape:current-layer="layer1"
     showgrid="true"
     inkscape:document-units="px"
     inkscape:grid-bbox="true"
     inkscape:window-width="1354"
     inkscape:window-height="712"
     inkscape:window-x="0"
     inkscape:window-y="0"
     inkscape:window-maximized="1"
     fit-margin-top="0"
     fit-margin-left="0"
     fit-margin-right="0"
     fit-margin-bottom="0" />
  <metadata
     id="metadata6213">
    <rdf:RDF>
      <cc:Work
         rdf:about="">
        <dc:format>image/svg+xml</dc:format>
        <dc:type
           rdf:resource="http://purl.org/dc/dcmitype/StillImage" />
        <dc:title></dc:title>
      </cc:Work>
    </rdf:RDF>
  </metadata>
  <g
     id="layer1"
     inkscape:label="Layer 1"
     inkscape:groupmode="layer"
     transform="translate(219.63634,203.8182)">
    <ellipse
       style="opacity:1;fill:#ffffff;fill-opacity:1;stroke:#014d80;stroke-width:14.84713268;stroke-miterlimit:4;stroke-dasharray:none;stroke-opacity:1"
       id="path4204"
       cx="35.235935"
       cy="42.312225"
       rx="242.77826"
       ry="242.33459"
       transform="matrix(0.99312828,0.11703085,-0.10942857,0.99399466,0,0)" />
    <path
       inkscape:connector-curvature="0"
       d="m 17.43799,-111.03561 c -55.38901,4.60073 -104.03778,37.719602 -128.60829,87.516952 -29.33854,59.41385 -18.32573,131.072738 27.28269,178.241548 l 7.14884,7.477 11.58871,-11.58549 c 6.32843,-6.32843 11.50506,-11.91687 11.50506,-12.40912 0,-0.49225 -2.05586,-2.62854 -4.60074,-4.76482 l -4.60074,-3.94441 -7.14883,7.14884 -7.23249,7.23248 -3.20443,-3.69667 c -19.22979,-21.85833 -31.88343,-52.921338 -34.26744,-84.232088 l -0.32817,-4.27258 10.10875,0 10.18275,0 0,-6.57615 0,-6.57294 -9.86102,0 -9.86102,0 0,-3.61625 c 0,-5.26028 2.87627,-21.03791 5.34072,-29.6667097 5.58844,-19.2297903 16.02536,-38.2118503 29.91122,-54.6490203 l 2.46445,-2.87627 6.82067,6.82067 6.90433,6.74024 4.68438,-4.76482 4.68439,-4.76482 -6.57294,-6.4925 c -3.61625,-3.61624 -6.57294,-6.74024 -6.57294,-6.98476 0,-0.65633 8.95696,-7.64108 16.18944,-12.65363 18.24208,-12.57321 45.1966095,-22.18649 67.46676,-23.99462 l 6.73701,-0.57589 0,9.61329 0,9.53285 6.57294,0 6.57616,0 0,-9.53285 0,-9.61329 6.82068,0.57589 c 15.44947,1.31588 35.83105,6.98476 50.62097,14.21725 8.54515,4.19214 20.0502,11.58549 27.93902,17.99756 l 5.01255,4.02484 -6.57294,6.57294 c -3.61624,3.61625 -6.57294,6.98476 -6.57294,7.48023 0,0.49224 2.05264,2.62853 4.60074,4.76481 l 4.60073,4.02484 6.74024,-6.73702 6.73703,-6.74024 5.01255,6.00026 c 18.48981,22.43422 30.81528,51.7727703 32.87114,78.80773 l 0.49224,6.49251 -10.02188,0 -9.94467,0 0,6.56972 0,6.57294 10.10875,0 10.10875,0 -0.65954,7.80838 c -2.13629,26.62636 -12.90137,53.825408 -29.99488,75.767378 -2.87626,3.69668 -5.58845,6.98476 -6.08069,7.31292 -0.49225,0.32816 -4.10849,-2.71218 -8.21698,-6.73702 l -7.31292,-7.31292 -4.68439,4.68438 -4.60073,4.68439 11.34097,11.74957 c 6.24478,6.49251 11.58549,11.83323 11.91688,11.99731 0.32816,0.0836 3.69667,-3.124 7.56065,-7.14883 C 184.66673,112.40254 198.1472,51.756472 179.73783,-3.3848077 156.80814,-72.411948 89.50547,-117.03588 17.43799,-111.03561 Z"
       id="path6291"
       style="fill:#014d80;fill-opacity:1" />
    <path
       inkscape:connector-curvature="0"
       d="m 88.52098,9.680642 -45.60842,22.02562 -2.46445,-1.47995 c -11.99731,-7.14884 -27.03818,-0.16408 -28.8463,13.47726 -0.73998,5.17664 0.90406,10.43692 4.43666,14.62906 3.78032,4.35622 8.30063,6.4925 14.13358,6.4925 5.75254,0 10.35327,-2.13628 14.05316,-6.4925 3.124,-3.61947 4.85169,-7.97247 4.85169,-12.49277 l 0,-2.79583 45.44434,-21.7779 c 24.89867,-11.99409 46.01702,-22.4309997 46.757,-23.2546297 3.45216,-3.36851 0.16408,-10.5173503 -4.84847,-10.3532703 -1.23222,0 -22.84603,9.9446703 -47.90879,22.02241 z m -53.16907,33.11887 c 4.18892,5.58845 -3.78033,12.73728 -9.20469,8.21698 -2.62854,-2.13628 -3.04035,-5.91661 -0.90406,-8.62879 1.56038,-1.97221 2.38401,-2.30037 5.17663,-2.05585 2.46767,0.16729 3.69989,0.82362 4.93212,2.46766 z"
       id="path6293"
       style="fill:#014d80;fill-opacity:1" />
  </g>
</svg>
