<?xml version="1.0" encoding="UTF-8" standalone="no"?>
<!-- Created with Inkscape (http://www.inkscape.org/) -->

<svg
   xmlns:dc="http://purl.org/dc/elements/1.1/"
   xmlns:cc="http://creativecommons.org/ns#"
   xmlns:rdf="http://www.w3.org/1999/02/22-rdf-syntax-ns#"
   xmlns:svg="http://www.w3.org/2000/svg"
   xmlns="http://www.w3.org/2000/svg"
   xmlns:sodipodi="http://sodipodi.sourceforge.net/DTD/sodipodi-0.dtd"
   xmlns:inkscape="http://www.inkscape.org/namespaces/inkscape"
   width="499.99997"
   height="500.00003"
   id="svg6208"
   version="1.1"
   inkscape:version="0.91 r13725"
   viewBox="0 0 499.99997 500.00003"
   sodipodi:docname="speedometer.svg">
  <defs
     id="defs6210" />
  <sodipodi:namedview
     id="base"
     pagecolor="#ffffff"
     bordercolor="#666666"
     borderopacity="1.0"
     inkscape:pageopacity="0.0"
     inkscape:pageshadow="2"
     inkscape:zoom="0.6875"
     inkscape:cx="-33.454569"
     inkscape:cy="322.36365"
     inkscape:current-layer="layer1"
     showgrid="true"
     inkscape:document-units="px"
     inkscape:grid-bbox="true"
     inkscape:window-width="1354"
     inkscape:window-height="712"
     inkscape:window-x="0"
     inkscape:window-y="0"
     inkscape:window-maximized="1"
     fit-margin-top="0"
     fit-margin-left="0"
     fit-margin-right="0"
     fit-margin-bottom="0" />
  <metadata
     id="metadata6213">
    <rdf:RDF>
      <cc:Work
         rdf:about="">
        <dc:format>image/svg+xml</dc:format>
        <dc:type
           rdf:resource="http://purl.org/dc/dcmitype/StillImage" />
        <dc:title />
      </cc:Work>
    </rdf:RDF>
  </metadata>
  <g
     id="layer1"
     inkscape:label="Layer 1"
     inkscape:groupmode="layer"
     transform="translate(219.63634,203.8182)">
    <ellipse
       style="opacity:1;fill:#ffffff;fill-opacity:1;stroke:#014d80;stroke-width:14.84713268;stroke-miterlimit:4;stroke-dasharray:none;stroke-opacity:1"
       id="path4204"
       cx="35.235935"
       cy="42.312225"
       rx="242.77826"
       ry="242.33459"
       transform="matrix(0.99312828,0.11703085,-0.10942857,0.99399466,0,0)" />
    <path
       style="fill:#014d80;fill-opacity:1"
       d="m 29.208984,-113.57031 c -54.195918,-0.0228 -107.170268,29.822185 -135.075644,76.308658 -29.88475,47.762026 -31.47919,111.538311 -3.71202,160.615402 8.43803,15.6944 20.248631,29.19674 32.807196,41.70484 8.198337,-8.86641 17.93243,-16.61829 25.064453,-26.35351 -0.803027,-5.22342 -7.550938,-7.53626 -10.594748,-11.37788 -4.302246,1.50076 -8.416312,7.98406 -12.643911,11.4388 -2.696468,4.91284 -5.131547,-2.28684 -7.444935,-4.02967 -18.204285,-22.98429 -28.544165,-51.911998 -30.476565,-81.060549 6.71029,0 13.420575,0 20.130862,0 -0.674,-5.375479 1.333938,-13.432896 -1,-17.148437 -6.240886,0 -12.481772,0 -18.722652,0 1.63542,-31.6919676 15.094549,-62.057392 35.830074,-85.867188 4.485962,4.542116 9.070457,8.984528 13.640625,13.441406 3.345736,-4.353991 10.455713,-8.735563 11.453049,-13.076225 -4.015172,-4.239616 -9.101879,-8.43166 -12.41594,-12.80854 23.734733,-20.491208 54.3991855,-32.93333 85.550781,-34.990235 0,6.322917 0,12.645834 0,18.96875 5.375569,-0.67391 13.432645,1.333686 17.148438,-1 0,-5.990234 0,-11.980468 0,-17.970703 31.2033,2.076781 61.560303,14.320373 85.400393,34.802735 -3.89779,4.642828 -9.64438,8.240279 -12.20703,13.841797 1.95112,5.118807 7.88774,7.590481 11.34765,11.574218 4.41784,-4.4168 8.83788,-8.831389 13.25196,-13.251953 20.86027,23.896196 34.66911,54.4836809 36.35351,86.337891 -6.60351,0 -13.20703,0 -19.81055,0 0.67409,5.37344 -1.33388,13.428934 1,17.142578 6.34701,0 12.69401,0 19.04102,0 -1.53844,31.551529 -14.28243,62.799395 -35.10547,86.351565 -5.40487,-4.32958 -10.02067,-9.53074 -14.98242,-14.33985 -4.05657,4.03096 -8.08245,8.09232 -12.07617,12.18555 8.60341,8.55009 16.54371,17.83666 25.59375,25.91016 5.83079,-2.31091 9.34701,-8.55767 13.85906,-12.73554 C 186.97425,110.15944 199.45439,49.673799 182.17179,-2.3652284 165.89887,-54.766802 120.69759,-96.750169 67.271484,-109.19727 c -12.447513,-2.99609 -25.259032,-4.47115 -38.0625,-4.37304 z"
       id="path6291"
       inkscape:connector-curvature="0" />
    <path
       style="fill:#014d80;fill-opacity:1"
       d="M 136.09766,-14.314453 C 104.45512,-1.1695718 74.032651,14.861658 43.015625,29.435547 32.807478,21.688385 16.220364,25.545103 11.263672,37.580078 4.8398556,50.442717 15.713314,67.628105 30.216797,66.824219 42.007408,67.271042 51.938463,55.811737 51.076172,44.304688 81.610971,29.318339 112.81451,15.504602 142.73828,-0.62304688 147.57331,-5.5038873 142.79484,-14.909785 136.09766,-14.314453 Z M 29.376953,42.269531 c 4.770335,-1.062911 7.29163,6.058803 2.359375,7.777344 -5.627554,2.710828 -8.47338,-7.286553 -2.359375,-7.777344 z"
       id="path6293"
       inkscape:connector-curvature="0" />
  </g>
</svg>
